SplineFontDB: 3.0
FontName: Nobile-bold-italic002
FullName: Nobile-bold-italic002
FamilyName: Nobile-bold-italic002
Weight: Bold
Copyright: Copyright (c) 2007 by vernon adams. All rights reserved.
Version: 001
ItalicAngle: -8
UnderlinePosition: -292
UnderlineWidth: 40
Ascent: 1638
Descent: 410
LayerCount: 2
Layer: 0 0 "Back"  1
Layer: 1 0 "Fore"  0
NeedsXUIDChange: 1
XUID: [1021 431 2112825563 7122429]
FSType: 0
OS2Version: 2
OS2_WeightWidthSlopeOnly: 0
OS2_UseTypoMetrics: 1
CreationTime: 1270427763
ModificationTime: 1273313058
PfmFamily: 17
TTFWeight: 700
TTFWidth: 5
LineGap: 117
VLineGap: 0
Panose: 2 0 0 0 0 0 0 0 0 0
OS2TypoAscent: -121
OS2TypoAOffset: 1
OS2TypoDescent: -47
OS2TypoDOffset: 1
OS2TypoLinegap: 117
OS2WinAscent: -899
OS2WinAOffset: 1
OS2WinDescent: 109
OS2WinDOffset: 1
HheadAscent: -1921
HheadAOffset: 1
HheadDescent: 737
HheadDOffset: 1
OS2SubXSize: 1434
OS2SubYSize: 1331
OS2SubXOff: 0
OS2SubYOff: 287
OS2SupXSize: 1434
OS2SupYSize: 1331
OS2SupXOff: 0
OS2SupYOff: 977
OS2StrikeYSize: 102
OS2StrikeYPos: 512
OS2Vendor: 'pyrs'
OS2CodePages: 00000001.00000000
OS2UnicodeRanges: 00000001.00000000.00000000.00000000
Lookup: 258 0 0 "'kern' Horizontal Kerning in Latin lookup 0"  {"'kern' Horizontal Kerning in Latin lookup 0 subtable"  } ['kern' ('latn' <'dflt' > ) ]
DEI: 91125
LangName: 1033 "" "" "Bold" "" "" "Version 1.000;PS 001.000;hotconv 1.0.38" "" "Nobile-bold is a trademark of vernon adams." "vernon adams" "" "Copyright (c) 2007 by vernon adams. All rights reserved." "" "" "" "" "" "Nobile-bold-italic002" "Bold" 
Encoding: iso8859-10
UnicodeInterp: none
NameList: Adobe Glyph List
DisplaySize: -48
AntiAlias: 1
FitToEm: 1
WinInfo: 0 12 7
BeginPrivate: 12
BlueValues 37 [-37 0 1128 1167 1323 1358 1571 1606]
OtherBlues 11 [-468 -348]
FamilyBlues 27 [-41 0 1169 1190 1579 1579]
FamilyOtherBlues 11 [-502 -502]
BlueScale 7 0.00825
BlueShift 1 0
StdHW 4 [21]
StdVW 5 [313]
ForceBold 4 true
ExpansionFactor 4 0.06
StemSnapH 24 [21 236 250 262 268 277]

StartChar: exclam
Encoding: 33 33 2
Width: 729
GlyphClass: 2
Flags: W
HStem: -25 316<268.132 456.868>
VStem: 200 325<42.5781 223.422>
LayerCount: 2
Fore
SplineSet
200 133 m 4
 213 225 302 291 385 291 c 4
 468 291 538 225 525 133 c 4
 512 41 423 -25 340 -25 c 4
 257 -25 187 41 200 133 c 4
757 1530 m 1
 494 352 l 1
 299 352 l 1
 368 1530 l 1
 757 1530 l 1
EndSplineSet
EndChar

StartChar: numbersign
Encoding: 35 35 3
Width: 1239
GlyphClass: 2
Flags: W
HStem: 550 144<325 444 622 758 934 1068> 895 145<400 533 710 844 1025 1138>
LayerCount: 2
Fore
SplineSet
758 550 m 1
 585 550 l 1
 518 295 l 1
 378 295 l 1
 444 550 l 1
 305 550 l 1
 325 694 l 1
 479 694 l 1
 533 895 l 1
 379 895 l 1
 400 1040 l 1
 572 1040 l 1
 638 1309 l 1
 777 1309 l 1
 710 1040 l 1
 886 1040 l 1
 950 1307 l 1
 1091 1307 l 1
 1025 1040 l 1
 1159 1040 l 1
 1138 895 l 1
 988 895 l 1
 934 694 l 1
 1089 694 l 1
 1068 550 l 1
 897 550 l 1
 833 295 l 1
 692 295 l 1
 758 550 l 1
622 694 m 1
 792 694 l 1
 844 895 l 1
 675 895 l 1
 622 694 l 1
EndSplineSet
EndChar

StartChar: dollar
Encoding: 36 36 4
Width: 1249
GlyphClass: 2
Flags: W
HStem: -147 110<491.244 578> 1320 279<601.832 1051.47> 1599 93<861 946.595>
LayerCount: 2
Fore
SplineSet
473 -147 m 1
 861 1692 l 1
 962 1692 l 1
 578 -147 l 1
 473 -147 l 1
1228 485 m 0
 1258 697 1131 839 957 913 c 2
 645 1046 l 2
 546 1088 541 1133 546 1171 c 0
 563 1300 664 1320 788 1320 c 0
 965 1320 1114 1263 1181 1206 c 1
 1303 1482 l 1
 1217 1534 1033 1598 781 1599 c 0
 519 1599 281 1478 237 1168 c 0
 211 984 290 867 432 799 c 2
 802 623 l 2
 898 577 917 517 906 437 c 0
 886 292 746 240 626 240 c 0
 523 240 287 324 231 363 c 1
 133 98 l 17
 134 98 440 -37 606 -37 c 0
 940 -37 1177 124 1228 485 c 0
EndSplineSet
EndChar

StartChar: percent
Encoding: 37 37 5
Width: 2023
GlyphClass: 2
Flags: W
HStem: -23 213<1331.76 1534.26> 647 203<1383.97 1589.17> 711 206<483.586 686.03> 1379 200<535.511 741.167>
LayerCount: 2
Fore
SplineSet
1422 190 m 0xd0
 1554 190 1591 305 1602 385 c 0
 1620 512 1635 647 1492 647 c 0
 1394 647 1338 584 1315 418 c 0
 1291 251 1331 190 1422 190 c 0xd0
758 1150 m 0
 783 1331 731 1379 642 1379 c 0
 554 1379 489 1323 465 1150 c 0
 438 960 496 917 577 917 c 0xb0
 666 917 733 973 758 1150 c 0
452 -29 m 5
 1405 1674 l 5
 1604 1592 l 5
 645 -107 l 5
 452 -29 l 5
1415 -23 m 0
 1105 -23 1056 216 1082 397 c 0
 1137 787 1367 850 1514 850 c 0xd0
 1802 850 1841 614 1814 422 c 0
 1765 74 1559 -23 1415 -23 c 0
247 1130 m 0
 301 1516 516 1579 663 1579 c 0
 966 1579 1012 1344 985 1152 c 0
 959 964 848 711 548 711 c 0xb0
 258 711 225 973 247 1130 c 0
EndSplineSet
EndChar

StartChar: quotesingle
Encoding: 39 39 6
Width: 445
GlyphClass: 2
Flags: W
HStem: 1218 309<262 410>
VStem: 218 363
LayerCount: 2
Fore
SplineSet
218 1218 m 5
 262 1527 l 5
 581 1527 l 5
 586 1450 584 1378 574 1310 c 4
 549 1129 458 1054 288 998 c 5
 243 1116 l 5
 410 1218 l 4
 218 1218 l 5
EndSplineSet
EndChar

StartChar: parenleft
Encoding: 40 40 7
Width: 714
GlyphClass: 2
Flags: W
HStem: 1555 20G<722.969 749.286>
LayerCount: 2
Fore
SplineSet
199 684 m 0
 285 1298 735 1575 735 1575 c 1
 870 1386 l 1
 870 1386 576 1171 506 682 c 0
 438 195 674 -18 674 -18 c 1
 485 -209 l 1
 485 -209 113 68 199 684 c 0
EndSplineSet
EndChar

StartChar: parenright
Encoding: 41 41 8
Width: 714
GlyphClass: 2
Flags: W
HStem: 1555 20G<363.106 389.442>
LayerCount: 2
Fore
SplineSet
670 684 m 0
 584 68 133 -209 133 -209 c 1
 -2 -18 l 1
 -2 -18 294 195 362 682 c 0
 432 1171 195 1386 195 1386 c 1
 383 1575 l 1
 383 1575 756 1298 670 684 c 0
EndSplineSet
EndChar

StartChar: asterisk
Encoding: 42 42 9
Width: 866
GlyphClass: 2
Flags: W
HStem: 1094 194<200 422 775 1002>
LayerCount: 2
Fore
SplineSet
631 1405 m 1
 773 1638 l 1
 938 1528 l 1
 775 1288 l 1
 1029 1288 l 1
 1002 1094 l 1
 753 1094 l 1
 858 854 l 1
 663 746 l 1
 572 986 l 1
 413 746 l 1
 249 854 l 1
 422 1094 l 1
 172 1094 l 1
 200 1288 l 1
 454 1288 l 1
 358 1528 l 1
 554 1638 l 1
 631 1405 l 1
EndSplineSet
EndChar

StartChar: plus
Encoding: 43 43 10
Width: 833
GlyphClass: 2
Flags: W
HStem: 459 252<102 324 627 851>
LayerCount: 2
Fore
SplineSet
851 459 m 1
 592 459 l 1
 549 154 l 1
 281 154 l 1
 324 459 l 1
 66 459 l 1
 102 711 l 1
 359 711 l 1
 402 1016 l 1
 670 1016 l 1
 627 711 l 1
 887 711 l 1
 851 459 l 1
EndSplineSet
EndChar

StartChar: comma
Encoding: 44 44 11
Width: 445
GlyphClass: 2
Flags: W
HStem: 0 309<92 239>
VStem: 47 363
LayerCount: 2
Fore
SplineSet
47 0 m 5
 92 309 l 5
 410 309 l 5
 415 232 412 160 402 92 c 4
 377 -89 287 -164 117 -220 c 5
 72 -102 l 5
 239 0 l 4
 47 0 l 5
EndSplineSet
EndChar

StartChar: hyphen
Encoding: 45 45 12
Width: 1045
GlyphClass: 2
Flags: W
HStem: 604 232<229 1011>
LayerCount: 2
Fore
SplineSet
1011 604 m 5
 197 604 l 5
 229 836 l 1
 1044 836 l 1
 1011 604 l 5
EndSplineSet
EndChar

StartChar: period
Encoding: 46 46 13
Width: 426
GlyphClass: 2
Flags: W
HStem: -12 365<147.875 327.125>
VStem: 68 339<68.0293 272.287>
LayerCount: 2
Fore
SplineSet
68 170 m 4
 82 271 169 353 263 353 c 4
 357 353 421 271 407 170 c 4
 393 69 306 -12 212 -12 c 4
 118 -12 54 69 68 170 c 4
EndSplineSet
EndChar

StartChar: slash
Encoding: 47 47 14
Width: 1153
GlyphClass: 2
Flags: W
LayerCount: 2
Fore
SplineSet
140 -147 m 1
 1158 1667 l 1
 1425 1667 l 1
 412 -147 l 1
 140 -147 l 1
EndSplineSet
EndChar

StartChar: zero
Encoding: 48 48 15
Width: 1270
GlyphClass: 2
Flags: W
HStem: -27 260<492.478 764.822> 946 260<585.535 855.715>
LayerCount: 2
Fore
SplineSet
625 233 m 0
 812 233 889 394 918 602 c 0
 945 794 905 946 724 946 c 0
 542 946 462 777 438 592 c 0
 410 380 445 233 625 233 c 0
761 1206 m 0
 1121 1206 1274 968 1221 590 c 0
 1168 213 944 -27 588 -27 c 0
 232 -27 78 215 131 590 c 0
 184 971 404 1206 761 1206 c 0
EndSplineSet
EndChar

StartChar: one
Encoding: 49 49 16
Width: 801
GlyphClass: 2
Flags: W
HStem: 0 21G<243 552.81>
VStem: 160 552
LayerCount: 2
Fore
SplineSet
243 0 m 1
 369 892 l 1
 214 825 l 1
 160 1063 l 1
 512 1202 l 1
 712 1153 l 1
 550 0 l 1
 243 0 l 1
EndSplineSet
EndChar

StartChar: two
Encoding: 50 50 17
Width: 981
GlyphClass: 2
Flags: W
HStem: 0 268<537 845> 930 261<373.472 658.713>
LayerCount: 2
Fore
SplineSet
674 786 m 0
 687 880 654 930 551 930 c 0
 427 930 221 825 221 825 c 5
 171 1064 l 5
 172 1064 412 1191 608 1191 c 0
 814 1191 1029 1104 991 834 c 0
 969 676 890 564 689 396 c 2
 537 268 l 1
 883 268 l 1
 845 0 l 1
 47 0 l 1
 77 217 l 1
 418 492 l 2
 512 568 658 675 674 786 c 0
EndSplineSet
EndChar

StartChar: three
Encoding: 51 51 18
Width: 1064
GlyphClass: 2
Flags: W
HStem: -176 258<143.754 552.819> 424 246<393 536.923> 940 262<323.418 655.528>
LayerCount: 2
Fore
SplineSet
670 829 m 0
 681 907 619 940 532 940 c 0
 417 940 257 870 257 870 c 2
 184 1099 l 1
 186 1098 349 1202 546 1202 c 0
 820 1202 992 1106 958 823 c 0
 943 703 856 579 732 547 c 1
 856 513 929 379 909 239 c 0
 868 -52 645 -176 369 -176 c 0
 157 -176 31 -108 31 -108 c 1
 143 144 l 2
 143 144 275 82 396 82 c 0
 515 82 591 119 607 236 c 0
 624 360 498 428 358 424 c 1
 393 670 l 1
 523 670 653 711 670 829 c 0
EndSplineSet
EndChar

StartChar: four
Encoding: 52 52 19
Width: 1049
GlyphClass: 2
Flags: W
HStem: 59 256<406 574 894 1019>
LayerCount: 2
Fore
SplineSet
780 1217 m 1
 1011 1151 l 1
 894 317 l 1
 1055 317 l 1
 1019 59 l 1
 857 59 l 1
 818 -217 l 1
 535 -216 l 1
 574 59 l 1
 52 59 l 1
 42 260 l 1
 780 1217 l 1
406 315 m 1
 610 315 l 1
 662 685 l 1
 406 315 l 1
EndSplineSet
EndChar

StartChar: five
Encoding: 53 53 20
Width: 1033
GlyphClass: 2
Flags: W
HStem: -182 254<278.091 607.733> 492 249<480.377 666.232> 924 245<511 998>
LayerCount: 2
Fore
SplineSet
174 166 m 1
 174 166 315 77 468 72 c 0
 590 68 691 147 708 280 c 0
 725 413 678 493 552 492 c 0
 489 492 407 464 308 411 c 1
 195 535 l 1
 284 1169 l 1
 1033 1169 l 1
 998 924 l 1
 511 924 l 1
 479 699 l 1
 479 700 537 741 618 741 c 0
 883 741 1025 565 986 284 c 0
 945 -8 715 -190 430 -182 c 0
 299 -178 165 -132 78 -90 c 1
 174 166 l 1
EndSplineSet
EndChar

StartChar: six
Encoding: 54 54 21
Width: 1202
GlyphClass: 2
Flags: W
HStem: -100 260<501.025 742.254> 621 253<609.271 805.002> 1338 20G<795.5 1002.8>
LayerCount: 2
Fore
SplineSet
457 457 m 1
 436 279 471 160 622 160 c 0
 763 160 815 287 836 433 c 0
 853 557 804 621 694 621 c 0
 602 621 525 579 466 526 c 1
 457 457 l 1
1122 386 m 0
 1082 102 880 -100 588 -100 c 0
 261 -100 110 151 153 456 c 0
 226 969 591 1249 1000 1358 c 1
 1037 1094 l 1
 848 1054 706 976 608 860 c 1
 654 869 697 874 737 874 c 0
 1015 874 1158 643 1122 386 c 0
EndSplineSet
EndChar

StartChar: seven
Encoding: 55 55 22
Width: 910
GlyphClass: 2
Flags: W
HStem: 911 258<150 656>
LayerCount: 2
Fore
SplineSet
966 1169 m 1
 1017 989 l 1
 298 -236 l 1
 41 -104 l 1
 656 911 l 1
 113 911 l 1
 150 1169 l 1
 966 1169 l 1
EndSplineSet
EndChar

StartChar: eight
Encoding: 56 56 23
Width: 1190
GlyphClass: 2
Flags: W
HStem: -127 264<456.133 734.783> 510 244<555.822 754.115> 1069 254<585.598 837.627>
LayerCount: 2
Fore
SplineSet
755 1323 m 0
 1006 1323 1189 1191 1153 936 c 0
 1130 770 1007 642 863 612 c 1
 997 591 1111 456 1086 275 c 0
 1046 -12 796 -127 551 -127 c 0
 306 -127 90 -12 130 275 c 0
 155 456 307 591 447 612 c 1
 312 642 225 770 248 936 c 0
 284 1191 504 1323 755 1323 c 0
588 137 m 0
 704 137 771 176 789 297 c 0
 807 422 761 510 641 510 c 0
 521 510 450 422 432 297 c 0
 416 176 472 137 588 137 c 0
675 754 m 0
 783 754 842 803 860 922 c 0
 875 1028 817 1069 719 1069 c 0
 621 1069 552 1028 537 922 c 0
 521 803 567 754 675 754 c 0
EndSplineSet
EndChar

StartChar: nine
Encoding: 57 57 24
Width: 1172
GlyphClass: 2
Flags: W
HStem: 215 258<481.924 687.062> 928 260<552.102 784.993>
LayerCount: 2
Fore
SplineSet
454 654 m 0
 437 542 490 473 587 473 c 0
 660 473 762 489 790 540 c 2
 839 628 l 1
 860 791 824 928 674 928 c 0
 524 928 478 810 454 654 c 0
554 215 m 0
 286 215 127 411 167 698 c 0
 208 987 417 1188 690 1188 c 0
 1024 1188 1187 981 1138 633 c 0
 1063 102 610 -198 290 -270 c 1
 255 -4 l 1
 458 39 603 118 689 233 c 1
 646 221 600 215 554 215 c 0
EndSplineSet
EndChar

StartChar: question
Encoding: 63 63 27
Width: 1021
GlyphClass: 2
Flags: W
HStem: -25 316<259.132 446.868> 1153 21G<260.189 301.5> 1202 273<336.28 737.039>
LayerCount: 2
Fore
SplineSet
600 594 m 0
 567 363 l 1
 241 363 l 1
 289 709 l 1
 473 804 778 880 768 1092 c 0
 763 1196 656 1202 555 1202 c 0
 442 1202 341 1174 262 1153 c 1
 240 1396 l 1
 358 1452 561 1475 668 1475 c 0
 950 1475 1126 1373 1085 1085 c 0
 1072 992 1031 750 600 594 c 0
191 133 m 4
 204 225 292 291 375 291 c 4
 458 291 528 225 515 133 c 4
 502 41 414 -25 331 -25 c 4
 248 -25 178 41 191 133 c 4
EndSplineSet
EndChar

StartChar: at
Encoding: 64 64 28
Width: 1652
GlyphClass: 2
Flags: W
HStem: -133 219<617.799 1061.7> 195 196<721.121 917.05> 945 178<873.07 1174.39> 1227 231<806.233 1267.08>
LayerCount: 2
Back
SplineSet
1424.17 181.577 m 5
 1468.42 133.12 l 6
 1468.42 135.168 1280 -112.64 849.92 -112.64 c 4
 368.64 -112.64 28.6719 149.504 28.6719 591.872 c 4xfa
 28.6719 1077.25 407.552 1417.22 864.256 1417.22 c 4
 1320.96 1417.22 1662.98 1183.74 1662.98 735.232 c 4
 1662.98 436.224 1523.71 292.864 1382.4 227.328 c 5
 1424.17 181.577 l 5
927.744 890.88 m 4
 765.952 890.88 630.784 759.808 630.784 573.44 c 4xf6
 630.784 473.088 671.744 425.984 747.52 425.984 c 4
 915.456 425.984 970.752 634.88 997.376 884.736 c 5
 970.752 888.832 944.128 890.88 927.744 890.88 c 4
1357.82 737.28 m 4
 1357.82 862.208 1320.96 958.464 1257.47 1028.1 c 5
 1296.38 950.272 l 5
 1249.28 440.32 l 5
 1302.53 477.184 1357.82 563.2 1357.82 737.28 c 4
870.4 1165.31 m 4
 581.632 1165.31 393.216 962.561 346.112 712.704 c 5
 409.6 933.888 630.784 1132.54 913.408 1132.54 c 4
 993.28 1132.54 1081.34 1114.11 1155.07 1105.92 c 5
 1077.25 1146.88 980.992 1165.31 870.4 1165.31 c 4
860.16 139.264 m 4
 958.464 139.264 1040.38 157.696 1103.87 182.272 c 5
 1044.48 192.512 1009.66 219.136 991.232 256 c 5
 929.792 208.896 847.872 176.128 729.088 176.128 c 4
 651.264 176.128 583.68 190.464 528.384 217.088 c 5
 614.4 165.888 722.944 139.264 860.16 139.264 c 4
1056.77 876.544 m 5
 1054.72 876.544 l 5
 1056.77 874.496 l 5
 1056.77 876.544 l 5
EndSplineSet
Fore
SplineSet
1016 945 m 0
 866 945 733 828 697 573 c 0
 684 480 719 391 797 391 c 0
 999 391 1110 701 1177 926 c 1
 1178 927 1088 945 1016 945 c 0
798 -133 m 0
 344 -136 74 156 137 602 c 0
 199 1044 538 1458 1089 1458 c 0
 1467 1458 1778 1204 1715 754 c 0
 1675 466 1481 229 1225 229 c 0
 1118 229 1078 310 1095 433 c 0
 1097 450 1101 467 1105 485 c 1
 1015 295 922 195 762 195 c 0
 625 195 443 275 489 599 c 0
 535 927 790 1123 1036 1123 c 0
 1211 1123 1386 1056 1366 916 c 0
 1365 907 1363 898 1360 889 c 2
 1219 424 l 1
 1354 454 1446 552 1469 714 c 0
 1518 1061 1349 1227 1034 1227 c 0
 694 1227 440 965 389 602 c 0
 339 246 536 86 865 86 c 0
 949 86 1028 110 1099 139 c 1
 1119 -61 l 1
 1033 -111 917 -133 798 -133 c 0
EndSplineSet
EndChar

StartChar: A
Encoding: 65 65 29
Width: 1337
GlyphClass: 2
Flags: W
HStem: 0 21G<-37 313.457 962.314 1307> 350 170<520 897> 1557 20G<659.059 1047.34>
LayerCount: 2
Fore
SplineSet
823 1346 m 1
 520 520 l 1
 897 520 l 1
 823 1346 l 1
668 1577 m 1
 1044 1577 l 1
 1307 0 l 1
 965 0 l 1
 918 350 l 1
 453 350 l 1
 305 0 l 1
 -37 0 l 1
 668 1577 l 1
EndSplineSet
EndChar

StartChar: B
Encoding: 66 66 30
Width: 1267
GlyphClass: 2
Flags: W
HStem: 0 268<440 853.796> 709 229<535 901.171> 1307 270<586 949.696>
LayerCount: 2
Fore
SplineSet
586 1307 m 1
 535 938 l 1
 692 938 l 2
 909 938 981 1018 999 1145 c 0
 1015 1258 944 1307 670 1307 c 2
 586 1307 l 1
963 477 m 0
 990 663 889 709 664 709 c 2
 502 709 l 1
 440 268 l 1
 571 268 l 2
 798 268 938 299 963 477 c 0
1274 492 m 0
 1223 130 962 0 532 0 c 2
 80 0 l 1
 301 1577 l 1
 670 1577 l 2
 1164 1577 1341 1468 1298 1163 c 0
 1278 1022 1157 883 989 852 c 1
 1167 811 1303 697 1274 492 c 0
EndSplineSet
EndChar

StartChar: C
Encoding: 67 67 31
Width: 1167
GlyphClass: 2
Flags: W
HStem: -37 277<563.334 941.844> 1319 280<707.013 1114.73>
LayerCount: 2
Fore
SplineSet
1106 94 m 1
 1038 37 889 -37 664 -37 c 0
 308 -37 55 176 139 772 c 0
 223 1368 534 1599 911 1599 c 0
 1054 1599 1223 1544 1303 1491 c 1
 1264 1219 l 1
 1264 1219 1048 1319 872 1319 c 0
 686 1319 524 1186 465 770 c 0
 408 358 533 240 719 240 c 0
 895 240 1145 369 1145 369 c 1
 1106 94 l 1
EndSplineSet
EndChar

StartChar: D
Encoding: 68 68 32
Width: 1359
GlyphClass: 2
Flags: W
HStem: 0 268<444 830.059> 1309 270<590 970.311>
LayerCount: 2
Fore
SplineSet
815 1309 m 2
 590 1309 l 1
 444 268 l 1
 668 268 l 2
 873 268 1000 420 1053 795 c 0
 1106 1176 1020 1309 815 1309 c 2
303 1579 m 1
 852 1579 l 2
 1229 1579 1462 1373 1380 795 c 0
 1298 217 1010 0 631 0 c 2
 82 0 l 1
 303 1579 l 1
EndSplineSet
EndChar

StartChar: E
Encoding: 69 69 33
Width: 1091
GlyphClass: 2
Flags: W
HStem: 0 248<432 1069> 735 221<532 1079> 1327 250<586 1245>
LayerCount: 2
Fore
SplineSet
1069 0 m 1
 78 0 l 1
 299 1577 l 1
 1280 1577 l 1
 1245 1327 l 1
 586 1327 l 1
 532 956 l 1
 1110 956 l 1
 1079 735 l 1
 502 735 l 1
 432 248 l 1
 1104 248 l 1
 1069 0 l 1
EndSplineSet
EndChar

StartChar: F
Encoding: 70 70 34
Width: 1075
GlyphClass: 2
Flags: W
HStem: 0 21G<78 401.861> 748 219<537 1112> 1307 270<584 1243>
LayerCount: 2
Fore
SplineSet
506 748 m 1
 399 0 l 1
 78 0 l 1
 299 1577 l 1
 1280 1577 l 1
 1243 1307 l 1
 584 1307 l 1
 537 967 l 1
 1143 967 l 1
 1112 748 l 1
 506 748 l 1
EndSplineSet
EndChar

StartChar: G
Encoding: 71 71 35
Width: 1363
GlyphClass: 2
Flags: W
HStem: -37 277<563.409 858.943> 0 21G<1031.99 1245.8> 655 224<709 1067> 1319 280<709.409 1152.48>
VStem: 1034 209<0 102.45>
LayerCount: 2
Fore
SplineSet
1243 0 m 1x78
 1034 0 l 1x78
 1020 139 l 1
 965 53 828 -37 672 -37 c 0
 281 -37 61 203 141 770 c 0
 225 1364 534 1599 915 1599 c 0
 1048 1599 1208 1557 1337 1479 c 1
 1298 1212 l 1
 1148 1294 992 1319 881 1319 c 0
 650 1319 520 1143 467 768 c 0
 412 375 516 240 721 240 c 0xb8
 830 240 1020 326 1020 326 c 1
 1067 655 l 1
 678 655 l 1
 709 879 l 1
 1366 879 l 1
 1243 0 l 1x78
EndSplineSet
EndChar

StartChar: H
Encoding: 72 72 36
Width: 1417
GlyphClass: 2
Flags: W
HStem: 0 21G<82 408.816 954 1276.8> 696 244<539 1053> 1557 20G<300.197 627 1173.14 1495>
LayerCount: 2
Fore
SplineSet
954 0 m 1
 1053 696 l 1
 504 696 l 1
 406 0 l 1
 82 0 l 1
 303 1577 l 1
 627 1577 l 1
 539 940 l 1
 1085 940 l 1
 1176 1577 l 1
 1495 1577 l 1
 1274 0 l 1
 954 0 l 1
EndSplineSet
EndChar

StartChar: I
Encoding: 73 73 37
Width: 827
GlyphClass: 2
Flags: W
HStem: 0 184<92 266 578 727> 1393 184<289 436 748 924>
LayerCount: 2
Fore
SplineSet
92 184 m 1
 266 184 l 1
 436 1393 l 1
 262 1393 l 1
 289 1577 l 1
 950 1577 l 1
 924 1393 l 1
 748 1393 l 1
 578 184 l 1
 754 184 l 1
 727 0 l 1
 68 0 l 1
 92 184 l 1
EndSplineSet
EndChar

StartChar: J
Encoding: 74 74 38
Width: 796
GlyphClass: 2
Flags: W
HStem: -86 240<100.715 215.038> 1557 20G<542.199 864>
LayerCount: 2
Fore
SplineSet
104 -86 m 1
 49 154 l 1
 344 203 366 301 395 506 c 2
 545 1577 l 1
 864 1577 l 1
 719 539 l 2
 682 279 622 -59 104 -86 c 1
EndSplineSet
EndChar

StartChar: K
Encoding: 75 75 39
Width: 1241
GlyphClass: 2
Flags: W
HStem: 0 21G<84 408.781 920.964 1305> 1557 20G<302.197 627 1097.1 1475>
LayerCount: 2
Fore
SplineSet
500 676 m 1
 406 0 l 1
 84 0 l 1
 305 1577 l 1
 627 1577 l 1
 535 909 l 1
 596 909 l 1
 840 1212 l 1
 1112 1577 l 1
 1475 1577 l 1
 932 897 l 1
 827 786 l 1
 895 688 l 1
 1305 0 l 1
 932 0 l 1
 559 676 l 1
 500 676 l 1
EndSplineSet
EndChar

StartChar: L
Encoding: 76 76 40
Width: 1048
GlyphClass: 2
Flags: W
HStem: 0 242<432 1032> 1557 20G<296.172 621>
LayerCount: 2
Fore
SplineSet
1032 0 m 1
 76 0 l 1
 299 1577 l 1
 621 1577 l 1
 432 242 l 1
 1067 242 l 1
 1032 0 l 1
EndSplineSet
EndChar

StartChar: M
Encoding: 77 77 41
Width: 1802
GlyphClass: 2
Flags: W
HStem: 0 21G<117 428.5 702.525 1030.04 1307 1638.84> 1557 20G<337.172 750.854 1410.54 1860>
LayerCount: 2
Fore
SplineSet
705 0 m 1
 571 1083 l 1
 526 794 449 281 408 0 c 1
 117 0 l 1
 340 1577 l 1
 748 1577 l 1
 895 547 l 1
 911 346 l 1
 981 541 l 1
 1419 1577 l 1
 1860 1577 l 1
 1636 0 l 1
 1307 0 l 1
 1458 1085 l 1
 1022 0 l 1
 705 0 l 1
EndSplineSet
EndChar

StartChar: N
Encoding: 78 78 42
Width: 1560
GlyphClass: 2
Flags: W
HStem: 0 21G<160 471.805 1036.33 1405.8> 1557 20G<378.197 755.55 1312.18 1624>
LayerCount: 2
Fore
SplineSet
1403 0 m 1
 1044 0 l 1
 623 1098 l 1
 469 0 l 1
 160 0 l 1
 381 1577 l 1
 748 1577 l 1
 1161 483 l 1
 1315 1577 l 1
 1624 1577 l 1
 1403 0 l 1
EndSplineSet
EndChar

StartChar: O
Encoding: 79 79 43
Width: 1406
GlyphClass: 2
Flags: W
HStem: -37 277<564.21 868.787> 1321 276<702.408 1000.87>
LayerCount: 2
Fore
SplineSet
670 -37 m 0
 303 -37 63 170 147 770 c 0
 231 1374 541 1597 899 1597 c 0
 1255 1597 1499 1374 1415 770 c 0
 1331 170 1035 -37 670 -37 c 0
860 1321 m 0
 661 1321 530 1165 475 770 c 0
 420 375 516 240 709 240 c 0
 899 240 1035 375 1090 770 c 0
 1145 1165 1057 1321 860 1321 c 0
EndSplineSet
EndChar

StartChar: P
Encoding: 80 80 44
Width: 1202
GlyphClass: 2
Flags: W
HStem: 0 21G<80 403.808> 584 250<520 860.078> 1327 250<588 914.239>
LayerCount: 2
Fore
SplineSet
1008 1067 m 0
 1031 1229 973 1327 668 1327 c 2
 588 1327 l 1
 520 834 l 1
 573 834 l 2
 882 834 985 911 1008 1067 c 0
301 1577 m 1
 705 1577 l 2
 1203 1577 1364 1401 1315 1047 c 0
 1266 703 1031 584 537 584 c 2
 483 584 l 1
 401 0 l 1
 80 0 l 1
 301 1577 l 1
EndSplineSet
EndChar

StartChar: Q
Encoding: 81 81 45
Width: 1406
GlyphClass: 2
Flags: W
HStem: -420 21G<938.29 976.345> 1319 280<707.651 1000.39>
LayerCount: 2
Fore
SplineSet
471 768 m 0
 420 397 504 240 709 240 c 0
 916 240 1049 397 1100 768 c 0
 1153 1141 1067 1319 862 1319 c 0
 657 1319 524 1141 471 768 c 0
889 10 m 1
 1192 -188 l 1
 956 -420 l 1
 608 -27 l 1
 280 16 65 238 141 770 c 0
 227 1376 553 1599 901 1599 c 0
 1241 1599 1509 1376 1423 770 c 0
 1362 336 1155 96 889 10 c 1
EndSplineSet
EndChar

StartChar: R
Encoding: 82 82 46
Width: 1267
GlyphClass: 2
Flags: W
HStem: 0 21G<80 403.828 872 1185.99> 686 256<535 846.33> 1307 270<586 978.649>
LayerCount: 2
Fore
SplineSet
1184 0 m 1
 872 0 l 1
 918 457 l 1
 945 639 839 686 573 686 c 2
 498 686 l 1
 401 0 l 1
 80 0 l 1
 301 1577 l 1
 700 1577 l 2
 1073 1577 1386 1567 1325 1133 c 0
 1302 979 1169 827 866 809 c 1
 1093 772 1256 660 1233 492 c 1
 1184 0 l 1
535 942 m 1
 588 942 l 2
 840 942 999 963 1024 1133 c 0
 1049 1305 916 1307 680 1307 c 0
 662 1307 l 2
 586 1307 l 1
 535 942 l 1
EndSplineSet
EndChar

StartChar: S
Encoding: 83 83 47
Width: 1249
GlyphClass: 2
Flags: W
HStem: -37 277<378.495 811.464> 1319 280<611.072 1059.52>
LayerCount: 2
Fore
SplineSet
608 240 m 0
 758 240 884 278 907 442 c 0
 917 522 889 594 803 623 c 0
 768 635 459 781 432 799 c 1
 301 869 211 992 238 1180 c 0
 281 1485 559 1599 823 1599 c 0
 1071 1599 1284 1503 1284 1503 c 1
 1243 1210 l 1
 1243 1210 983 1319 821 1319 c 0
 616 1319 559 1257 547 1167 c 0
 533 1071 608 1053 772 987 c 0
 864 950 913 936 956 913 c 1
 1144 837 1250 656 1221 449 c 0
 1194 267 1073 -37 598 -37 c 0
 334 -37 141 72 141 72 c 1
 182 365 l 1
 182 365 420 240 608 240 c 0
EndSplineSet
EndChar

StartChar: T
Encoding: 84 84 48
Width: 1075
GlyphClass: 2
Flags: W
HStem: 0 21G<360 680.803> 1327 250<190 547 864 1251>
LayerCount: 2
Fore
SplineSet
1251 1327 m 1
 864 1327 l 1
 678 0 l 1
 360 0 l 1
 547 1327 l 1
 156 1327 l 1
 190 1577 l 1
 1286 1577 l 1
 1251 1327 l 1
EndSplineSet
EndChar

StartChar: U
Encoding: 85 85 49
Width: 1437
GlyphClass: 2
Flags: W
HStem: -37 266<561.631 887.48> 1557 20G<296.213 621 1197.18 1522>
LayerCount: 2
Fore
SplineSet
721 229 m 0
 926 229 1026 342 1079 719 c 2
 1200 1577 l 1
 1522 1577 l 1
 1403 723 l 2
 1317 117 1024 -37 684 -37 c 0
 342 -37 94 117 180 723 c 2
 299 1577 l 1
 621 1577 l 1
 500 719 l 2
 447 342 516 229 721 229 c 0
EndSplineSet
EndChar

StartChar: V
Encoding: 86 86 50
Width: 1236
GlyphClass: 2
Flags: W
HStem: 0 21G<411.007 780.624> 1557 20G<178 510.154 1110.28 1452>
LayerCount: 2
Fore
SplineSet
508 1577 m 1
 641 342 l 1
 1118 1577 l 1
 1452 1577 l 1
 772 0 l 1
 414 0 l 1
 178 1577 l 1
 508 1577 l 1
EndSplineSet
EndChar

StartChar: W
Encoding: 87 87 51
Width: 1939
GlyphClass: 2
Flags: W
HStem: 0 21G<326.833 711.545 1138.03 1522.8> 1557 20G<236 565.755 1713.64 2052>
VStem: 236 329<1331.26 1577>
LayerCount: 2
Fore
SplineSet
958 1565 m 1
 1325 1565 l 1
 1358 438 l 1
 1720 1577 l 1
 2052 1577 l 1
 1516 0 l 1
 1139 0 l 1
 1083 1155 l 1
 705 0 l 1
 328 0 l 1
 236 1577 l 1
 565 1577 l 1
 608 438 l 1
 958 1565 l 1
EndSplineSet
EndChar

StartChar: X
Encoding: 88 88 52
Width: 1150
GlyphClass: 2
Flags: W
HStem: 0 21G<-84 294.16 817.24 1188> 1557 20G<135 511.393 1030.94 1411>
LayerCount: 2
Fore
SplineSet
621 516 m 1
 610 500 l 1
 281 0 l 1
 -84 0 l 1
 324 575 l 2
 373 647 426 714 479 788 c 1
 389 995 l 1
 135 1577 l 1
 504 1577 l 1
 694 1063 l 1
 698 1047 l 1
 1044 1577 l 1
 1411 1577 l 1
 997 997 l 1
 848 788 l 1
 1188 0 l 1
 825 0 l 1
 631 500 l 1
 621 516 l 1
EndSplineSet
EndChar

StartChar: Y
Encoding: 89 89 53
Width: 1189
GlyphClass: 2
Flags: W
HStem: 0 21G<412 731.78> 1557 20G<160 516.439 1060.84 1427>
LayerCount: 2
Fore
SplineSet
682 811 m 1
 1071 1577 l 1
 1427 1577 l 1
 801 518 l 1
 729 0 l 1
 412 0 l 1
 483 518 l 1
 160 1577 l 1
 512 1577 l 1
 682 811 l 1
EndSplineSet
EndChar

StartChar: Z
Encoding: 90 90 54
Width: 1105
GlyphClass: 2
Flags: W
HStem: 0 266<438 1063> 1307 270<252 868>
LayerCount: 2
Fore
SplineSet
1282 1577 m 1
 1249 1346 l 1
 438 266 l 1
 1100 268 l 1
 1063 0 l 1
 31 0 l 1
 66 248 l 1
 868 1307 l 1
 213 1307 l 1
 252 1577 l 1
 1282 1577 l 1
EndSplineSet
EndChar

StartChar: bracketleft
Encoding: 91 91 55
Width: 1067
GlyphClass: 2
Flags: W
HStem: 0 262<555 905> 1270 262<696 1083>
LayerCount: 2
Fore
SplineSet
424 1532 m 1
 1120 1532 l 1
 1083 1270 l 1
 696 1270 l 1
 555 262 l 1
 942 262 l 1
 905 0 l 1
 209 0 l 1
 424 1532 l 1
EndSplineSet
EndChar

StartChar: backslash
Encoding: 92 92 56
Width: 1243
GlyphClass: 2
Flags: W
VStem: 432 596
LayerCount: 2
Fore
SplineSet
719 1667 m 1
 1028 -147 l 1
 735 -147 l 1
 432 1667 l 1
 719 1667 l 1
EndSplineSet
EndChar

StartChar: bracketright
Encoding: 93 93 57
Width: 1067
GlyphClass: 2
Flags: W
HStem: 0 262<246 633> 1270 262<424 774>
LayerCount: 2
Fore
SplineSet
424 1532 m 1
 1120 1532 l 1
 905 0 l 1
 209 0 l 1
 246 262 l 1
 633 262 l 1
 774 1270 l 1
 387 1270 l 1
 424 1532 l 1
EndSplineSet
EndChar

StartChar: asciicircum
Encoding: 94 94 58
Width: 1881
GlyphClass: 2
Flags: HW
LayerCount: 2
Fore
SplineSet
989 1182 m 0
 1225 1182 l 0
 1424 563 l 0
 1151 563 l 4
 1081 1007 l 0
 887 563 l 0
 615 563 l 0
 989 1182 l 0
EndSplineSet
EndChar

StartChar: underscore
Encoding: 95 95 59
Width: 1048
GlyphClass: 2
Flags: W
HStem: -98 262<80 969>
LayerCount: 2
Fore
SplineSet
969 -98 m 1
 43 -98 l 1
 80 164 l 1
 1006 164 l 1
 969 -98 l 1
EndSplineSet
EndChar

StartChar: grave
Encoding: 96 96 60
Width: 643
GlyphClass: 2
Flags: W
VStem: 131 395
LayerCount: 2
Fore
SplineSet
526 315 m 1
 324 315 l 1
 131 999 l 1
 522 999 l 1
 526 315 l 1
EndSplineSet
EndChar

StartChar: a
Encoding: 97 97 61
Width: 1119
GlyphClass: 2
Flags: W
HStem: -16 236<354.528 651.581> 0 21G<809.94 1027.75> 894 234<558.321 840.904>
VStem: 134.125 313.309<261.692 710.334>
LayerCount: 2
Back
SplineSet
1099 1016 m 5xb8
 955 0 l 5
 825 0 l 5x78
 832 214 l 5
 756 74 627 -20 493 -20 c 4
 239 -20 146 190 146 416 c 4
 146 736 378 1130 726 1130 c 4
 892 1130 1099 1016 1099 1016 c 5xb8
301 422 m 4
 301 206 365.888 110 513 110 c 4xb8
 654 110 788 238 832 304 c 5
 928.004 975 l 5
 874 995 818.447 1010.74 745 1012 c 5
 506 1012 301 742 301 422 c 4
EndSplineSet
Fore
SplineSet
1158 968 m 1xb0
 1025 0 l 1
 815 0 l 1x70
 773 166 l 1
 736 75 635 -16 482 -16 c 0
 227.056 -16 134.125 163.031 134.125 399.779 c 0
 134.125 751.003 301.984 1128 620 1128 c 0
 904 1128 1158 968 1158 968 c 1xb0
457 557 m 0
 451.149 515.538 447.434 473.364 447.434 433.523 c 0
 447.434 316.738 479.357 220 583 220 c 0xb0
 678 220 737 253 767 290 c 1
 846 858 l 1
 848 856 782 894 651 894 c 0
 516 894 479 714 457 557 c 0
EndSplineSet
EndChar

StartChar: b
Encoding: 98 98 62
Width: 1131
GlyphClass: 2
Flags: W
HStem: -16 236<481.032 707.834> 0 21G<87 317.084> 894 234<640.514 932.93>
VStem: 837.856 308.134<416.091 868.879>
LayerCount: 2
Fore
SplineSet
1135 557 m 0x70
 1091 247 949 -16 639 -16 c 0xb0
 486 -16 409 75 398 166 c 1
 306 0 l 1
 87 0 l 1
 310 1590 l 1
 628 1636 l 1
 539 1002 l 1
 607 1083 705 1128 827 1128 c 0
 1038.86 1128 1145.99 959.869 1145.99 705.988 c 0
 1145.99 659.08 1142.33 609.244 1135 557 c 0x70
603 220 m 0
 790.885 220 837.856 551.776 837.856 716.386 c 0
 837.856 815.193 813.327 894 724 894 c 0
 638 894 566 856 511 805 c 1
 439 290 l 1
 459 253 508 220 603 220 c 0
EndSplineSet
EndChar

StartChar: c
Encoding: 99 99 63
Width: 1007
GlyphClass: 2
Flags: W
HStem: -14 236<527.012 805.944> 892 236<589.286 907.281>
VStem: 137.34 314.275<297.471 705.104>
LayerCount: 2
Back
SplineSet
563.2 212.992 m 0x1c
 450.56 212.992 350.208 296.96 350.208 491.52 c 1
 759.808 491.52 l 1
 759.808 319.488 692.224 212.992 563.2 212.992 c 0x1c
937.794 877.314 m 1x5c
 995.011 1096.55 l 1x5c
 995.011 1096.55 841.729 1185.79 563.2 1185.79 c 0
 229.376 1185.79 16.3838 974.848 16.3838 589.824 c 0
 16.3838 176.128 272.384 -18.4316 565.248 -18.4316 c 0
 872.448 -18.4316 1044.48 194.56 1044.48 501.76 c 0
 1044.48 540.672 1040.38 579.584 1036.29 665.6 c 1
 344.064 665.6 l 1
 344.064 870.4 442.368 942.08 567.296 942.08 c 0x9c
 718.848 942.08 937.794 877.314 937.794 877.314 c 1x5c
EndSplineSet
Fore
SplineSet
137.34 438.91 m 0
 137.34 851.257 417.053 1128 715 1128 c 4
 886 1128 972 1080 1050 1030 c 5
 963 810 l 5
 943 835 842 892 739 892 c 4
 565 892 491 785 459 557 c 4
 454.045 522.168 451.615 490.243 451.615 461.139 c 0
 451.615 296.393 529.473 222 668 222 c 4
 771 222 840 271 891 304 c 5
 916 84 l 5
 824 34 725 -14 554 -14 c 4
 312.584 -14 137.34 145.127 137.34 438.91 c 0
EndSplineSet
EndChar

StartChar: d
Encoding: 100 100 64
Width: 1119
GlyphClass: 2
Flags: W
HStem: -16 236<354.528 651.581> 0 21G<809.94 1027.82> 894 234<558.321 781.687>
VStem: 134.125 313.309<261.692 710.334>
LayerCount: 2
Fore
SplineSet
620 1128 m 0xb0
 759 1128 831 1058 865 988 c 1
 949 1585 l 1
 1256 1638 l 1
 1025 0 l 1
 815 0 l 1x70
 773 166 l 1
 736 75 635 -16 482 -16 c 0
 227.056 -16 134.125 163.031 134.125 399.779 c 0
 134.125 751.003 301.984 1128 620 1128 c 0xb0
457 557 m 0
 451.149 515.538 447.434 473.364 447.434 433.523 c 0
 447.434 316.738 479.357 220 583 220 c 0xb0
 678 220 737 253 767 290 c 1
 839 805 l 1
 798 856 737 894 651 894 c 0
 516 894 479 714 457 557 c 0
EndSplineSet
EndChar

StartChar: e
Encoding: 101 101 65
Width: 1062
GlyphClass: 2
Flags: W
HStem: -16.0125 238.007<528.288 818.278> 951.255 234.745<613.463 811.164>
VStem: 138.995 315.918<301.216 452.443> 830 244<735.242 934.22>
LayerCount: 2
Back
SplineSet
295 521 m 5
 537 520 860.686 647.999 860.686 853.128 c 4
 860.686 928 834 1000 714 1000 c 4
 542 1000 304 756 295 521 c 5
293 434 m 5
 294 208 375.075 110 536.075 110 c 4
 703.075 110 828.075 237 828.075 237 c 6
 860.075 110 l 5
 809.075 74 678.075 -21 506.075 -21 c 4
 262.075 -21 136 155 136 412 c 4
 136 802 428 1130 704 1130 c 4
 912 1130 994.075 1000 994.075 864.521 c 4
 994.075 552 622 434 293 434 c 5
EndSplineSet
Fore
SplineSet
470 600 m 1
 470 600 830 642 830 838 c 0
 830 896.901 802.226 951.255 722.025 951.255 c 0
 566.43 951.255 477.376 743.823 470 600 c 1
454.913 452.443 m 1
 454.913 320.949 523.549 221.994 655.227 221.994 c 0
 761.665 221.994 856.152 261.614 926 314 c 1
 984 100 l 1
 876.991 42.457 720.373 -16.0125 567.145 -16.0125 c 0
 299.685 -16.0125 138.995 164.399 138.995 450.516 c 0
 138.995 808.623 361.42 1186 738 1186 c 0
 967.874 1186 1074 1044 1074 901 c 0
 1074 607 834 462 454.913 452.443 c 1
EndSplineSet
EndChar

StartChar: f
Encoding: 102 102 66
Width: 714
GlyphClass: 2
Flags: W
HStem: 998 162<163 269 604 820> 1345 259<653.665 875.293>
DStem2: 93 -225 405 -225 0.139173 0.990268<43.422 1235.59 1442.64 1606.22>
LayerCount: 2
Back
SplineSet
864.256 1296.38 m 5x10
 864.256 1529.86 l 5
 864.256 1529.86 792.576 1603.58 528.384 1603.58 c 4
 260.096 1603.58 155.648 1435.65 155.648 1191.94 c 6
 155.648 598.016 l 5x10
 -4.0957 598.016 l 5
 -4.0957 436.224 l 5
 184.32 436.224 l 5
 184.32 94.208 l 5
 485.376 10.2402 l 5
 485.376 436.224 l 5x08
 749.568 436.224 l 5
 749.568 598.016 l 5
 485.376 598.016 l 5
 485.376 1193.98 l 6
 485.376 1316.86 540.672 1345.54 663.552 1345.54 c 4
 755.712 1345.54 864.256 1296.38 864.256 1296.38 c 5x10
EndSplineSet
Fore
SplineSet
747 1345 m 0
 668 1345 625 1308 604 1160 c 1
 843 1160 l 1
 820 998 l 1
 580 998 l 1
 405 -225 l 5
 93 -225 l 5
 269 998 l 1
 140 998 l 1
 163 1160 l 1
 291 1160 l 1
 327 1426 462 1604 715 1604 c 0
 788 1604 851 1591 906 1574 c 1
 871 1320 l 1
 871 1320 817 1345 747 1345 c 0
EndSplineSet
EndChar

StartChar: g
Encoding: 103 103 67
Width: 1112
GlyphClass: 2
Flags: W
HStem: -556 248<271.946 724.727> 907 221<526.43 779.116 1042.2 1250>
VStem: -6.35042 250.966<-365.697 -120.814> 192.81 280.037<641.361 856.246> 773.444 266.966<-256.737 -69.2892> 804.185 264.655<671.866 882.577>
LayerCount: 2
Fore
SplineSet
244.616 -205.838 m 0xe8
 244.616 -273.43 305.785 -308 528 -308 c 0
 683.794 -308 773.444 -275.415 773.444 -145.074 c 0xe8
 773.444 -86.552 737.183 -51.1745 582 -21 c 2
 294 35 l 2
 216.166 49.4808 87.546 99.1837 87.546 210.056 c 0
 87.546 221.687 88.9616 233.992 92 247 c 0
 121 370 162 401 472 466 c 1
 277.205 466 192.81 596.474 192.81 713.622 c 0
 192.81 879.373 341.124 1128 668 1128 c 0
 787 1128 885 1109 932 1070 c 1
 1013 1107 1094 1126 1176 1126 c 2
 1281 1126 l 1
 1250 907 l 1
 1042 907 l 2
 1042.87 907 1068.84 846.164 1068.84 781.523 c 0xd4
 1068.84 772.037 1068.28 762.469 1067 753 c 0
 1036 533 932 404 622 330 c 2
 332 261 l 25
 612 201 l 2
 926.67 133.763 1040.41 44.0216 1040.41 -121.542 c 0
 1040.41 -295.325 955.576 -556 483 -556 c 0
 77.0259 -556 -6.35042 -428.388 -6.35042 -303.006 c 0
 -6.35042 -90.9046 174.063 62.0599 194 91 c 1
 386 39 l 1
 349.05 -13.3452 244.616 -122.004 244.616 -205.838 c 0xe8
472.847 727.958 m 0xd4
 472.847 664.405 508.156 621 612 621 c 0
 761.922 621 804.185 701.381 804.185 786.999 c 0
 804.185 867.717 751.432 907 661 907 c 0
 510.478 907 472.847 812.474 472.847 727.958 c 0xd4
EndSplineSet
EndChar

StartChar: h
Encoding: 104 104 68
Width: 1120
GlyphClass: 2
Flags: W
HStem: 0 21G<87 400.815 721 1036.81> 884 234<641.903 922.735>
VStem: 820.795 315.845<584.028 852.207>
LayerCount: 2
Fore
SplineSet
624 1649 m 1
 530 979 l 2
 531 981 620 1118 825 1118 c 0
 1020.47 1118 1136.64 1008.03 1136.64 782.281 c 0
 1136.64 747.019 1133.81 708.933 1128 668 c 2
 1034 0 l 25
 721 0 l 25
 817 682 l 2
 819.56 700.594 820.795 717.844 820.795 733.776 c 0
 820.795 836.085 769.874 884 692 884 c 0
 600 884 561 852 512 810 c 1
 398 0 l 29
 87 0 l 29
 310 1589 l 1
 624 1649 l 1
EndSplineSet
EndChar

StartChar: k
Encoding: 107 107 71
Width: 1119
GlyphClass: 2
Flags: W
HStem: 0 21G<91 405.816 749.719 1114>
DStem2: 90.8595 -1 402.859 -1 0.139173 0.990268<44.4318 467.565 787.743 1605.58> 507 736 759 649 0.680386 0.732854<107.699 590.841>
LayerCount: 2
Fore
SplineSet
462 419 m 1
 403 0 l 1
 91 0 l 1
 314 1589 l 5
 633 1638 l 1
 507 736 l 1
 909 1169 l 1
 1269 1169 l 1
 759 649 l 1
 1114 0 l 1
 759 -1 l 1
 533 486 l 1
 462 419 l 1
EndSplineSet
EndChar

StartChar: l
Encoding: 108 108 72
Width: 575
GlyphClass: 2
Flags: W
HStem: 0 21G<125 440.81>
VStem: 125 543
LayerCount: 2
Fore
SplineSet
668 1637 m 5
 438 0 l 5
 125 0 l 5
 349 1589 l 5
 668 1637 l 5
EndSplineSet
EndChar

StartChar: m
Encoding: 109 109 73
Width: 1639
GlyphClass: 2
Flags: W
HStem: 0 21G<87 401.814 667 981.81 1244 1554.8> 882 236<643.945 864 1198.1 1478.6>
VStem: 1349.15 309.3<617.518 871.656>
LayerCount: 2
Fore
SplineSet
1387 1118 m 0
 1570.2 1118 1658.45 1005.06 1658.45 810.905 c 0
 1658.45 776.146 1655.62 738.783 1650 699 c 2
 1552 0 l 1
 1244 0 l 1
 1345 715 l 2
 1347.82 735.229 1349.15 753.22 1349.15 769.178 c 0
 1349.15 854.983 1310.9 882 1262 882 c 0
 1207 882 1161 856 1090 790 c 1
 979 0 l 1
 667 0 l 1
 768 724 l 2
 771.276 747.295 772.829 767.345 772.829 784.558 c 0
 772.829 861.926 741.444 882 694 882 c 0
 616 882 544 819 510 789 c 1
 399 0 l 1
 87 0 l 1
 241 1102 l 1
 463 1102 l 1
 509 934 l 1
 553 1031 677 1118 795 1118 c 0
 933 1118 1019 1079 1059 944 c 1
 1139 1054 1230 1118 1387 1118 c 0
EndSplineSet
EndChar

StartChar: n
Encoding: 110 110 74
Width: 1096
GlyphClass: 2
Flags: W
HStem: 0 21G<87 402.808 696 1011.79> 884 234<642.878 912.445>
VStem: 798.112 314.318<426.453 866.621>
LayerCount: 2
Fore
SplineSet
792 682 m 6
 795.992 710.945 798.112 736.384 798.112 758.563 c 0
 798.112 847.486 764.039 884 680 884 c 4
 613 884 554 855 514 812 c 5
 400 0 l 5
 87 0 l 5
 241 1102 l 5
 478 1102 l 5
 518 963 l 5
 576 1043 684 1118 805 1118 c 4
 1019.89 1118 1112.43 1009.63 1112.43 800.485 c 0
 1112.43 759.506 1108.88 714.659 1102 666 c 6
 1009 0 l 5
 696 0 l 5
 792 682 l 6
EndSplineSet
EndChar

StartChar: o
Encoding: 111 111 75
Width: 1139
GlyphClass: 2
Flags: W
HStem: -16 234<495.328 710.88> 892 236<578 793.575>
VStem: 135.6 310.377<261.42 701.128> 843.023 309.377<403.17 847.757>
LayerCount: 2
Fore
SplineSet
597 218 m 0
 726 218 801 330 833 555 c 0
 839.655 601.792 843.023 643.697 843.023 680.724 c 0
 843.023 821.74 794.172 892 692 892 c 0
 563 892 488 780 456 555 c 0
 449.345 508.208 445.977 466.303 445.977 429.276 c 0
 445.977 288.26 494.828 218 597 218 c 0
135.6 425.486 m 0
 135.6 676.561 253.48 1128 725 1128 c 0
 1007.5 1128 1152.4 957.703 1152.4 681.409 c 0
 1152.4 426.579 1034.72 -16 564 -16 c 0
 280.61 -16 135.6 151.273 135.6 425.486 c 0
EndSplineSet
EndChar

StartChar: p
Encoding: 112 112 76
Width: 1135
GlyphClass: 2
Flags: W
HStem: -406 21G<29 344.791> -16 234<487.639 722.111> 884 236<637.178 919.455>
VStem: 835.251 312.399<386.42 840.365>
LayerCount: 2
Fore
SplineSet
1147.65 692.689 m 0
 1147.65 297.46 952.371 -16 629 -16 c 0
 529 -16 453 29 414 110 c 1
 342 -406 l 1
 29 -406 l 1
 241 1102 l 1
 480 1102 l 1
 519 962 l 1
 587 1069 699 1120 799 1120 c 0
 1039.91 1120 1147.65 948.778 1147.65 692.689 c 0
826 559 m 0
 831.7 599.398 835.251 639.735 835.251 677.559 c 0
 835.251 792.35 802.55 884 698 884 c 0
 591 884 549 847 513 813 c 1
 442 306 l 1
 483 255 545 218 631 218 c 0
 766 218 804 402 826 559 c 0
EndSplineSet
EndChar

StartChar: q
Encoding: 113 113 77
Width: 1123
GlyphClass: 2
Flags: W
HStem: -406 21G<662 955.812> -16 234<464.879 644.823> 892 236<562.787 784.057>
VStem: 144.249 290.352<241.524 691.747>
LayerCount: 2
Fore
SplineSet
647 1128 m 0
 769 1128 829 1063 854 956 c 1
 918 1102 l 1
 1165 1102 l 1
 953 -406 l 1
 662 -406 l 1
 734 110 l 1
 672 29 589 -16 484 -16 c 0
 361 -16 276 32 228 110 c 1
 180.883 184.602 144.249 283.871 144.249 418.461 c 0
 144.249 455.261 146.988 494.701 153 537 c 0
 201 877 338 1128 647 1128 c 0
449 559 m 0
 441.381 504.627 434.601 447.016 434.601 394.931 c 0
 434.601 296.622 458.754 218 547 218 c 0
 633 218 707 255 762 306 c 1
 830 791 l 1
 811 838 755 892 669 892 c 0
 530 892 472 722 449 559 c 0
EndSplineSet
EndChar

StartChar: r
Encoding: 114 114 78
Width: 711
GlyphClass: 2
Flags: W
HStem: 0 21G<92 407.817> 868 257<643.872 815.97>
LayerCount: 2
Fore
SplineSet
531 963 m 1
 621 1112 726 1125 855 1125 c 1
 816 851 l 1
 816 851 775 868 721 868 c 0
 641 868 565 824 516 788 c 1
 405 0 l 1
 92 0 l 5
 247 1102 l 5
 515 1102 l 1
 531 963 l 1
EndSplineSet
EndChar

StartChar: s
Encoding: 115 115 79
Width: 929
GlyphClass: 2
Flags: W
HStem: -18 241<271.83 617.891> 887 241<482.023 858.151>
VStem: 185.104 284.63<740.258 866.639> 641.607 292.69<250.126 411.711>
LayerCount: 2
Fore
SplineSet
185.104 758.183 m 0
 185.104 977.019 356.639 1128 645 1128 c 0
 829 1128 1010 1036 1010 1036 c 1
 920 820 l 1
 920 820 766 887 642 887 c 4
 499.889 887 469.734 852.61 469.734 801.026 c 0
 469.734 763.073 492.263 748.471 538 730 c 2
 659 680 l 2
 812.559 616.77 934.297 555.987 934.297 389.311 c 0
 934.297 149.498 753.501 -18 466 -18 c 0
 317 -18 189 12 90 86 c 1
 180 307 l 1
 180 307 341 223 480 223 c 0
 567.455 223 641.607 238.421 641.607 344.444 c 0
 641.607 390.607 612.6 407.865 558 429 c 2
 429 479 l 2
 259.526 545.201 185.104 629.322 185.104 758.183 c 0
EndSplineSet
EndChar

StartChar: t
Encoding: 116 116 80
Width: 869
GlyphClass: 2
Flags: W
HStem: -16 257.987<422.876 721.504> 1009 151<209 307 639 873> 1557 20G<625.143 695.17>
VStem: 218.848 312.367<255.011 523.975>
LayerCount: 2
Back
SplineSet
407.552 954.368 m 4x1c
 294.912 954.368 194.56 870.4 194.56 675.84 c 5
 604.16 675.84 l 5
 604.16 847.872 536.576 954.368 407.552 954.368 c 4x1c
782.146 290.046 m 5x5c
 839.362 70.8135 l 5x5c
 839.362 70.8135 686.08 -18.4316 407.552 -18.4316 c 4
 73.7275 -18.4316 -139.264 192.512 -139.264 577.536 c 4
 -139.264 991.232 116.736 1185.79 409.6 1185.79 c 4
 716.8 1185.79 888.832 972.8 888.832 665.6 c 4
 888.832 626.688 884.736 587.776 880.64 501.76 c 5
 188.416 501.76 l 5
 188.416 296.96 286.72 225.28 411.648 225.28 c 4x9c
 563.2 225.28 782.146 290.046 782.146 290.046 c 5x5c
EndSplineSet
Fore
SplineSet
623.668 241.987 m 0
 689.472 241.987 776 300.025 776 303 c 2
 826 83 l 1
 826 83 682 -16 509 -16 c 0
 336.753 -16 218.848 77.2646 218.848 319.174 c 0
 218.848 359.555 222.134 404.078 229 453 c 2
 307 1009 l 1
 188 1009 l 1
 209 1160 l 1
 337 1160 l 1
 392 1493 l 1
 698 1577 l 1
 639 1160 l 1
 894 1160 l 1
 873 1009 l 1
 618 1009 l 1
 536 428 l 6
 532.853 405.773 531.215 385.133 531.215 366.307 c 0
 531.215 303.272 549.705 241.987 623.668 241.987 c 0
EndSplineSet
EndChar

StartChar: u
Encoding: 117 117 81
Width: 1083
GlyphClass: 2
Flags: W
HStem: 0 21G<346.16 530.5 761.611 990.81> 1140 20G<240.175 556 835.206 1151>
VStem: 133.72 313.867<235.561 697.117>
LayerCount: 2
Fore
SplineSet
454 433 m 2
 449.831 404.473 447.587 378.401 447.587 355.018 c 0
 447.587 271.843 475.969 222.683 547 218 c 1
 620 223 677 248 717 294 c 1
 838 1160 l 1
 1151 1160 l 1
 988 0 l 1
 767 0 l 1
 722 167 l 1
 691 88 605 -16 456 -16 c 0
 236.321 -16 133.72 99.6498 133.72 324.314 c 0
 133.72 365.551 137.176 410.46 144 459 c 2
 243 1160 l 1
 556 1160 l 1
 454 433 l 2
EndSplineSet
EndChar

StartChar: v
Encoding: 118 118 82
Width: 1009
GlyphClass: 2
Flags: W
HStem: 0 21G<319.345 693.31> 1140 20G<168 484.467 841.945 1167>
LayerCount: 2
Fore
SplineSet
685 0 m 1
 322 0 l 1
 168 1160 l 5
 483 1160 l 1
 546 301 l 1
 849 1160 l 1
 1167 1160 l 1
 685 0 l 1
EndSplineSet
EndChar

StartChar: w
Encoding: 119 119 83
Width: 1313
GlyphClass: 2
Flags: W
HStem: 0 21G<229.552 535.656 780.896 1091.09> 1140 20G<147 424.634 683.606 952.742 1215.59 1495>
VStem: 147 277<962.027 1160>
LayerCount: 2
Fore
SplineSet
782 0 m 1
 746 652 l 5
 529 0 l 1
 231 0 l 1
 147 1160 l 1
 424 1160 l 1
 448 403 l 1
 690 1160 l 1
 952 1160 l 1
 980 405 l 1
 1222 1160 l 1
 1495 1160 l 1
 1084 0 l 1
 782 0 l 1
EndSplineSet
EndChar

StartChar: x
Encoding: 120 120 84
Width: 1045
GlyphClass: 2
Flags: W
HStem: 0 21G<22 365.976 689.5 1024> 1140 20G<179 524.139 846.435 1192>
LayerCount: 2
Fore
SplineSet
571 336 m 1
 353 0 l 1
 22 0 l 1
 443 584 l 1
 179 1160 l 1
 516 1160 l 1
 645 843 l 1
 860 1160 l 1
 1192 1160 l 5
 773 584 l 5
 1024 0 l 5
 697 0 l 1
 571 336 l 1
EndSplineSet
EndChar

StartChar: y
Encoding: 121 121 85
Width: 995
GlyphClass: 2
Flags: W
HStem: -468 261<119 241.888> 1140 20G<152 468.141 852.801 1165>
LayerCount: 2
Fore
SplineSet
401 43 m 1
 152 1160 l 1
 465 1160 l 1
 585 396 l 1
 860 1160 l 5
 1165 1160 l 1
 660 -32 l 2
 537 -323 372 -465 119 -468 c 1
 58 -207 l 1
 247 -193 337 -133 401 43 c 1
EndSplineSet
EndChar

StartChar: z
Encoding: 122 122 86
Width: 856
GlyphClass: 2
Flags: W
HStem: 0 264<402 785> 847 264<204 573>
LayerCount: 2
Fore
SplineSet
573 846 m 1
 166 847 l 1
 204 1111 l 1
 932 1111 l 5
 900 880 l 1
 402 264 l 1
 822 264 l 1
 785 0 l 1
 37 0 l 1
 70 233 l 1
 573 846 l 1
EndSplineSet
EndChar

StartChar: bar
Encoding: 124 124 87
Width: 1231
GlyphClass: 2
Flags: W
VStem: 449 542
LayerCount: 2
Fore
SplineSet
449 -147 m 1
 705 1667 l 1
 991 1667 l 1
 737 -147 l 1
 449 -147 l 1
EndSplineSet
EndChar

StartChar: exclamdown
Encoding: 256 161 88
Width: 727
GlyphClass: 2
Flags: W
HStem: -16 21G<172 522.748> 1141 20G<388.88 627> 1217 315<397 678>
VStem: 172 551
LayerCount: 2
Fore
SplineSet
723 1532 m 1
 678 1217 l 1
 354 1217 l 1
 397 1532 l 1
 723 1532 l 1
393 1161 m 1
 627 1161 l 1
 563 297 l 1
 520 -16 l 1
 172 -16 l 1
 215 297 l 1
 393 1161 l 1
EndSplineSet
EndChar

StartChar: cent
Encoding: 257 162 89
Width: 1152
GlyphClass: 2
Flags: W
HStem: -14 236<527.012 805.944> 892 236<589.286 907.281>
VStem: 137.34 314.275<297.471 705.104> 620 164<-147 1377>
LayerCount: 2
Fore
SplineSet
620 -147 m 5
 621 1377 l 5
 783 1377 l 5
 784 -147 l 5
 620 -147 l 5
EndSplineSet
Refer: 63 99 N 1 0 0 1 0 0 2
EndChar

StartChar: yen
Encoding: 258 165 90
Width: 1189
GlyphClass: 2
Flags: W
HStem: 0 21G<430 756.836> 402 120<203 487 829 1112> 651 120<238 427 976 1147> 1557 20G<183 539.465 1082.9 1450>
LayerCount: 2
Fore
SplineSet
706 811 m 1
 1093 1577 l 1
 1450 1577 l 1
 976 771 l 1
 1164 771 l 1
 1147 651 l 1
 905 651 l 1
 829 522 l 1
 1129 522 l 1
 1112 402 l 1
 811 402 l 1
 754 0 l 1
 430 0 l 1
 487 402 l 1
 186 402 l 1
 203 522 l 1
 502 522 l 1
 463 651 l 1
 221 651 l 1
 238 771 l 1
 427 771 l 1
 183 1577 l 1
 535 1577 l 1
 706 811 l 1
EndSplineSet
EndChar

StartChar: brokenbar
Encoding: 259 166 91
Width: 1231
GlyphClass: 2
Flags: W
VStem: 449 542
LayerCount: 2
Fore
SplineSet
449 -147 m 1
 555 599 l 1
 841 599 l 1
 737 -147 l 1
 449 -147 l 1
599 921 m 1
 705 1667 l 1
 991 1667 l 1
 887 921 l 1
 599 921 l 1
EndSplineSet
EndChar

StartChar: copyright
Encoding: 261 169 93
Width: 1986
GlyphClass: 2
Flags: W
HStem: -69 220<797.283 1240.71> 281 209<943.021 1243.44> 1100 209<1012.31 1346.04> 1440 221<970.982 1406.13>
LayerCount: 2
Fore
SplineSet
1017 151 m 0
 1364 151 1652 443 1702 800 c 0
 1738 1056 1627 1440 1180 1440 c 0
 893 1440 564 1191 508 794 c 0
 458 436 658 151 1017 151 c 0
1216 1661 m 0
 1690 1661 1887 1315 1927 1055 c 0
 1940 969 1939 873 1924 767 c 0
 1894 555 1734 165 1296 -8 c 0
 1192 -49 1085 -69 977 -69 c 0
 549 -69 210 279 282 794 c 0
 356 1317 811 1661 1216 1661 c 0
892 795 m 0
 859 562 938 490 1070 490 c 0
 1153 490 1229 520 1284 547 c 2
 1358 584 l 1
 1328 365 l 1
 1300 351 l 2
 1210 306 1126 281 1052 281 c 0
 700 281 640 559 673 795 c 0
 716 1102 905 1309 1180 1309 c 0
 1274 1309 1383 1271 1420 1243 c 2
 1441 1228 l 1
 1411 1018 l 1
 1347 1055 l 2
 1319 1072 1240 1100 1147 1100 c 0
 978 1100 913 946 892 795 c 0
EndSplineSet
EndChar

StartChar: guillemotleft
Encoding: 262 171 94
Width: 1110
GlyphClass: 2
Flags: W
HStem: -37 21G<664.647 688.791 1216.69 1240.86> 1125 20G<825.066 849.209 1377.07 1401.21>
LayerCount: 2
Fore
SplineSet
734 436 m 9
 767 672 l 17
 1404 1145 l 5
 1362 844 l 5
 967 554 l 1
 1281 264 l 5
 1238 -37 l 5
 734 436 l 9
181 436 m 9
 215 672 l 17
 852 1145 l 5
 810 844 l 5
 415 554 l 1
 728 264 l 5
 686 -37 l 5
 181 436 l 9
EndSplineSet
EndChar

StartChar: logicalnot
Encoding: 263 172 95
Width: 1427
GlyphClass: 2
Flags: W
HStem: 299 242<117 1085>
LayerCount: 2
Fore
SplineSet
1473 1174 m 1
 1350 299 l 1
 84 299 l 1
 117 541 l 1
 1085 541 l 1
 1176 1174 l 1
 1473 1174 l 1
EndSplineSet
EndChar

StartChar: registered
Encoding: 264 174 96
Width: 1265
GlyphClass: 2
Flags: W
HStem: 574 112<549.223 917.924> 1316 98<756 901.409> 1528 114<661.255 1023.11>
LayerCount: 2
Fore
SplineSet
775 1160 m 2
 848 1160 894 1175 904 1245 c 0
 912 1301 884 1316 756 1316 c 1
 734 1160 l 1
 775 1160 l 2
976 851 m 2
 862 795 l 1
 748 1060 l 1
 717 1060 l 1
 683 818 l 1
 573 818 l 1
 657 1414 l 1
 769 1414 l 2
 918 1414 1034 1382 1015 1250 c 0
 1002 1160 963 1113 854 1082 c 1
 976 851 l 2
271 1108 m 0
 312 1399 565 1642 862 1642 c 0
 1153 1642 1347 1406 1305 1108 c 0
 1263 810 1003 574 712 574 c 0
 415 574 230 816 271 1108 c 0
846 1528 m 0
 611 1528 416 1342 383 1106 c 0
 350 870 492 686 727 686 c 0
 964 686 1159 873 1192 1106 c 0
 1226 1345 1079 1528 846 1528 c 0
EndSplineSet
EndChar

StartChar: macron
Encoding: 265 175 97
Width: 831
GlyphClass: 2
Flags: W
HStem: 0 262<68 760>
LayerCount: 2
Fore
SplineSet
760 0 m 1
 31 0 l 1
 68 262 l 1
 797 262 l 1
 760 0 l 1
EndSplineSet
EndChar

StartChar: acute
Encoding: 267 180 99
Width: 903
GlyphClass: 2
Flags: W
VStem: 389 584
LayerCount: 2
Fore
SplineSet
590 313 m 1
 389 313 l 1
 584 997 l 1
 973 997 l 1
 590 313 l 1
EndSplineSet
EndChar

StartChar: uni00B5
Encoding: 268 181 100
Width: 1096
GlyphClass: 2
Flags: W
HStem: 1 5G<476.5 577.5 805.97 1025.81> 1141 20G<213.5 557 882.202 1186>
LayerCount: 2
Fore
SplineSet
503 -15 m 0
 450 -15 397 14 396 16 c 0
 325 -488 l 0
 34 -428 l 0
 34 -428 170 541 257 1161 c 25
 557 1161 l 17
 432 277 l 1
 430 279 524 215 594 219 c 24
 661 223 724 250 764 296 c 0
 885 1161 l 0
 1186 1161 l 0
 1023 1 l 0
 811 1 l 0
 769 168 l 0
 738 89 652 -15 503 -15 c 0
EndSplineSet
EndChar

StartChar: cedilla
Encoding: 269 184 101
Width: 341
GlyphClass: 2
Flags: W
HStem: -612 148<-127.167 150.051> -186 88<82 136.744>
VStem: -142 499
LayerCount: 2
Fore
SplineSet
-142 -558 m 5
 -123 -421 l 5
 -123 -420 -55 -464 31 -464 c 0
 110 -464 162 -452 177 -348 c 0
 192 -240 119 -186 -43 -186 c 1
 12 76 l 1
 125 76 l 1
 82 -98 l 1
 172 -98 383 -147 357 -342 c 0
 333 -518 225 -612 49 -612 c 0
 -65 -612 -143 -558 -142 -558 c 5
EndSplineSet
EndChar

StartChar: guillemotright
Encoding: 270 187 102
Width: 1194
GlyphClass: 2
Flags: W
HStem: -37 21G<231.143 255.311 783.209 807.353> 1125 20G<70.7907 94.9345 622.791 646.934>
LayerCount: 2
Fore
SplineSet
738 436 m 17
 234 -37 l 5
 191 264 l 5
 505 554 l 1
 110 844 l 5
 68 1145 l 5
 705 672 l 9
 738 436 l 17
1291 436 m 17
 786 -37 l 5
 744 264 l 5
 1057 554 l 1
 662 844 l 5
 620 1145 l 5
 1257 672 l 9
 1291 436 l 17
EndSplineSet
EndChar

StartChar: AE
Encoding: 198 198 109
Width: 1751
GlyphClass: 2
Flags: W
HStem: 0 268<1139 1683> 338 231<653 860> 709 241<1235 1722> 1311 268<1284 1843>
LayerCount: 2
Fore
SplineSet
1683 0 m 1
 813 0 l 1
 860 338 l 1
 518 338 l 1
 315 0 l 1
 -37 0 l 1
 952 1579 l 1
 1882 1579 l 1
 1843 1311 l 1
 1284 1311 l 1
 1260 1133 l 2
 1250 1063 1245 1028 1235 950 c 1
 1757 950 l 1
 1722 709 l 1
 1202 709 l 1
 1139 268 l 1
 1720 268 l 1
 1683 0 l 1
891 569 m 1
 903 661 916 756 928 850 c 2
 958 1065 l 1
 653 569 l 1
 891 569 l 1
EndSplineSet
EndChar

StartChar: Eth
Encoding: 208 208 119
Width: 1359
GlyphClass: 2
Flags: W
HStem: 0 268<444 830.059> 1311 268<590 965.591> 1640 256<612 1235>
LayerCount: 2
Fore
SplineSet
590 1311 m 1
 444 268 l 1
 668 268 l 2
 873 268 1000 413 1053 788 c 0
 1106 1165 1020 1311 815 1311 c 2
 590 1311 l 1
852 1579 m 2
 1229 1579 1462 1366 1380 788 c 0
 1298 210 1010 0 631 0 c 2
 82 0 l 1
 303 1579 l 1
 852 1579 l 2
1235 1640 m 1
 578 1640 l 1
 612 1896 l 1
 1270 1896 l 1
 1235 1640 l 1
EndSplineSet
EndChar

StartChar: Thorn
Encoding: 222 222 131
Width: 1206
GlyphClass: 2
Flags: W
HStem: 0 21G<80 403.863> 461 268<504 861.105> 1188 268<606 922.068> 1559 20G<298.201 625>
LayerCount: 2
Fore
SplineSet
301 1579 m 1
 625 1579 l 1
 606 1456 l 1
 696 1456 l 2
 1192 1456 1345 1310 1296 956 c 0
 1249 618 1022 461 524 461 c 2
 467 461 l 1
 401 0 l 1
 80 0 l 1
 301 1579 l 1
983 956 m 0
 1006 1118 959 1188 666 1188 c 2
 569 1188 l 1
 504 729 l 1
 561 729 l 2
 872 729 960 794 983 956 c 0
EndSplineSet
EndChar

StartChar: germandbls
Encoding: 223 223 132
Width: 1402
GlyphClass: 2
Flags: W
HStem: -209 293<547 852.147> 0 21G<85 417.816> 689 218<669 929.395> 1334 245<678.182 986.791>
LayerCount: 2
Fore
SplineSet
1328 1157 m 0x70
 1306 997 1204 849 982 819 c 1
 1363 783 1428 581 1396 355 c 2
 1396 352 l 2
 1336 -74 898 -209 507 -209 c 9
 547 84 l 5xb0
 946 84 1050 223 1076 410 c 0
 1098 566 994 689 679 689 c 2
 638 689 l 1
 669 907 l 1
 743 907 l 2
 899 907 1012 960 1037 1135 c 0
 1053 1246 1013 1334 820 1334 c 0
 646 1334 588 1229 553 980 c 2
 415 0 l 1
 85 0 l 1
 223 980 l 2
 275 1353 457 1579 854 1579 c 0
 1289 1579 1351 1318 1328 1157 c 0x70
EndSplineSet
EndChar

StartChar: thorn
Encoding: 254 254 159
Width: 1071
GlyphClass: 2
Flags: W
HStem: -438 21G<-1.17791 182.875> -16 260<437.778 681.593> 866 260<554.061 751.847>
LayerCount: 2
Fore
SplineSet
354 23 m 1
 295 -406 l 1
 -4 -438 l 1
 272 1518 l 1
 563 1518 l 1
 500 1063 l 1
 566 1104 637 1126 717 1126 c 0
 1043 1126 1106 815 1069 555 c 0
 1032 295 881 -16 555 -16 c 0
 479 -16 411 -8 354 23 c 1
465 766 m 1
 401 315 l 1
 432 288 498 244 588 244 c 0
 715 244 760 430 778 555 c 0
 796 680 803 866 676 866 c 0
 600 866 465 766 465 766 c 1
EndSplineSet
EndChar

StartChar: florin
Encoding: 360 402 270
Width: 665
GlyphClass: 2
Flags: W
HStem: -276 262<-61.2062 113.771> 905 246<70 250 578 815> 1341 263<611.381 786.537>
LayerCount: 2
Fore
SplineSet
145 162 m 2
 250 905 l 1
 35 905 l 1
 70 1151 l 1
 289 1151 l 1
 348 1532 498 1604 680 1604 c 0
 791 1604 901 1518 901 1518 c 1
 887 1243 l 1
 887 1243 721 1341 666 1341 c 0
 623 1341 600 1312 580 1167 c 2
 578 1151 l 1
 850 1151 l 1
 815 905 l 1
 547 905 l 1
 449 201 l 2
 392 -200 235 -276 51 -276 c 0
 -60 -276 -168 -190 -168 -190 c 1
 -158 82 l 1
 -158 82 6 -14 63 -14 c 0
 106 -14 125 17 145 162 c 2
EndSplineSet
EndChar

StartChar: uni0202
Encoding: 400 514 310
Width: 1337
GlyphClass: 2
Flags: W
HStem: 0 21G<-29 321.343 964.2 1309> 350 232<555 889> 1559 20G<669.045 1045.38> 1706 270<752.335 984.249>
LayerCount: 2
Fore
SplineSet
918 350 m 1
 459 350 l 1
 313 0 l 1
 -29 0 l 1
 678 1579 l 1
 1042 1579 l 1
 1309 0 l 1
 967 0 l 1
 918 350 l 1
913 1976 m 0
 1132 1976 1243 1821 1294 1706 c 1
 1094 1536 l 1
 1039 1624 966 1706 874 1706 c 0
 790 1706 698 1628 614 1536 c 1
 463 1706 l 1
 549 1831 710 1976 913 1976 c 0
801 1155 m 1
 799 1147 l 1
 555 582 l 1
 889 582 l 1
 862 766 819 969 801 1155 c 1
EndSplineSet
EndChar

StartChar: uni0203
Encoding: 401 515 311
Width: 983
GlyphClass: 2
Flags: W
HStem: -18 258<342.973 571.212> 0 21G<623.491 874.848> 485 244<372.421 645> 866 260<427.739 667.528> 1282 262<544.122 710.207>
LayerCount: 2
Fore
SplineSet
963 639 m 2xb8
 872 0 l 1
 625 0 l 1x78
 621 53 l 1
 551 10 469 -18 377 -18 c 0
 139 -18 18 110 53 354 c 0
 92 630 295 729 539 729 c 0
 588 729 641 725 680 717 c 1
 690 813 669 866 567 866 c 0
 417 866 178 739 178 739 c 1
 217 1020 l 1
 264 1040 316 1063 369 1081 c 1
 256 1278 l 1
 338 1403 484 1544 672 1544 c 0
 871 1544 977 1391 1018 1278 c 1
 842 1073 l 1
 977 995 990 834 963 639 c 2xb8
336 367 m 0
 324 275 354 240 434 240 c 0xb8
 504 240 570 276 623 319 c 1
 645 477 l 1
 618 481 576 485 543 485 c 0
 400 485 348 451 336 367 c 0
635 1282 m 0
 569 1282 494 1200 426 1098 c 1
 487 1114 553 1126 616 1126 c 0
 686 1126 746 1116 793 1098 c 1
 752 1194 698 1282 635 1282 c 0
EndSplineSet
EndChar

StartChar: uni0206
Encoding: 402 518 312
Width: 1091
GlyphClass: 2
Flags: W
HStem: 0 268<436 1069> 709 241<532 1075> 1311 268<582 997 1075 1243> 1706 270<683.97 915.687>
LayerCount: 2
Fore
SplineSet
1069 0 m 1
 78 0 l 1
 301 1579 l 1
 504 1579 l 1
 393 1706 l 1
 481 1831 641 1976 844 1976 c 0
 1063 1976 1174 1821 1225 1706 c 1
 1075 1579 l 1
 1282 1579 l 1
 1243 1311 l 1
 582 1311 l 1
 532 950 l 1
 1108 950 l 1
 1075 709 l 1
 498 709 l 1
 436 268 l 1
 1106 268 l 1
 1069 0 l 1
805 1706 m 0
 735 1706 656 1651 582 1579 c 1
 997 1579 l 1
 946 1649 881 1706 805 1706 c 0
EndSplineSet
EndChar

StartChar: uni0207
Encoding: 403 519 313
Width: 966
GlyphClass: 2
Flags: W
HStem: -18 264<414.705 707.682> 469 236<416 727> 874 252<491.845 702.337> 1282 262<576.787 748.024>
LayerCount: 2
Fore
SplineSet
897 377 m 1
 856 90 l 1
 856 90 659 -18 485 -18 c 0
 196 -18 39 182 90 547 c 0
 127 815 256 985 416 1067 c 1
 291 1278 l 1
 373 1403 516 1544 702 1544 c 0
 903 1544 1001 1391 1042 1278 c 1
 856 1061 l 1
 962 979 1002 824 975 627 c 0
 969 584 956 541 938 469 c 1
 371 469 l 1
 359 299 426 246 530 246 c 0
 669 246 897 377 897 377 c 1
608 874 m 0
 528 874 457 826 416 705 c 1
 727 705 l 1
 735 836 676 874 608 874 c 0
670 1282 m 0
 598 1282 516 1192 444 1081 c 1
 507 1110 577 1126 645 1126 c 0
 725 1126 793 1106 844 1069 c 1
 803 1173 742 1282 670 1282 c 0
EndSplineSet
EndChar

StartChar: uni020A
Encoding: 404 522 314
Width: 831
GlyphClass: 2
Flags: W
HStem: 0 231<102 274 586 729> 1354 225<291 334 414 432 743 827 905 920> 1706 270<514.97 750.672>
LayerCount: 2
Fore
SplineSet
102 231 m 1
 274 231 l 1
 432 1354 l 1
 260 1354 l 1
 291 1579 l 1
 334 1579 l 1
 223 1706 l 1
 311 1831 471 1976 674 1976 c 0
 893 1976 1004 1821 1055 1706 c 1
 905 1579 l 1
 952 1579 l 1
 920 1354 l 1
 743 1354 l 1
 586 231 l 1
 762 231 l 1
 729 0 l 1
 70 0 l 1
 102 231 l 1
637 1706 m 0
 567 1706 488 1651 414 1579 c 1
 827 1579 l 1
 776 1649 713 1706 637 1706 c 0
EndSplineSet
EndChar

StartChar: uni020B
Encoding: 405 523 315
Width: 487
GlyphClass: 2
Flags: W
HStem: 0 21G<100 393.806> 1223 360<348.72 534.218> 1679 263<369.974 583.893>
VStem: 270 348<1304.35 1504.39>
LayerCount: 2
Fore
SplineSet
520 1942 m 0
 719 1942 817 1792 860 1679 c 1
 682 1511 l 1
 635 1593 565 1679 483 1679 c 0
 403 1679 314 1601 242 1511 c 1
 104 1679 l 1
 186 1800 334 1942 520 1942 c 0
618 1405 m 0
 604 1307 512 1223 420 1223 c 0
 320 1223 256 1307 270 1405 c 0
 284 1503 371 1583 471 1583 c 0
 563 1583 632 1503 618 1405 c 0
391 0 m 1
 100 0 l 1
 266 1169 l 1
 555 1169 l 1
 391 0 l 1
EndSplineSet
EndChar

StartChar: uni020E
Encoding: 406 526 316
Width: 1406
GlyphClass: 2
Flags: W
HStem: -37 277<567.48 865.468> 1331 275<701.87 1008.26> 1706 270<788.787 1020.81>
LayerCount: 2
Fore
SplineSet
670 -37 m 0
 303 -37 66 184 150 784 c 0
 211 1226 395 1464 631 1556 c 1
 498 1706 l 1
 586 1831 745 1976 950 1976 c 0
 1169 1976 1282 1821 1331 1706 c 1
 1153 1556 l 1
 1362 1464 1478 1226 1417 784 c 0
 1333 184 1035 -37 670 -37 c 0
862 1331 m 0
 663 1331 532 1179 477 784 c 0
 422 389 516 240 709 240 c 0
 899 240 1037 389 1092 784 c 0
 1147 1179 1059 1331 862 1331 c 0
913 1706 m 0
 839 1706 760 1649 688 1575 c 1
 756 1595 827 1606 901 1606 c 0
 973 1606 1041 1595 1102 1577 c 1
 1053 1647 989 1706 913 1706 c 0
EndSplineSet
EndChar

StartChar: uni020F
Encoding: 407 527 317
Width: 1067
GlyphClass: 2
Flags: W
HStem: -16 254<431.869 650.551> 870 256<504.147 728.635> 1282 262<590.508 754.845>
LayerCount: 2
Fore
SplineSet
717 1544 m 0
 916 1544 1018 1391 1061 1278 c 1
 879 1069 l 1
 1045 975 1092 766 1061 551 c 0
 1020 262 844 -16 498 -16 c 0
 154 -16 53 262 94 551 c 0
 125 766 231 975 426 1069 c 1
 303 1278 l 1
 385 1403 529 1544 717 1544 c 0
535 238 m 0
 662 238 741 356 770 553 c 0
 799 750 750 870 623 870 c 0
 496 870 414 750 385 553 c 0
 356 356 408 238 535 238 c 0
659 1126 m 0
 733 1126 793 1112 846 1085 c 1
 803 1183 748 1282 680 1282 c 0
 610 1282 533 1193 463 1087 c 1
 520 1112 585 1126 659 1126 c 0
EndSplineSet
EndChar

StartChar: uni0212
Encoding: 408 530 318
Width: 1271
GlyphClass: 2
Flags: W
HStem: 0 21G<80 403.836 872 1185.89> 670 256<532 844.33> 1311 268<586 756 831 970.209> 1706 270<441.584 678.486>
LayerCount: 2
Fore
SplineSet
1184 0 m 1
 872 0 l 1
 913 440 l 1
 940 622 837 670 571 670 c 2
 496 670 l 1
 401 0 l 1
 80 0 l 1
 297 1540 l 1
 147 1706 l 1
 235 1831 399 1976 602 1976 c 0
 821 1976 930 1821 983 1706 c 1
 831 1577 l 1
 1142 1567 1374 1499 1321 1120 c 0
 1301 970 1209 861 1090 795 c 1
 1203 723 1248 608 1225 434 c 1
 1184 0 l 1
532 926 m 1
 586 926 l 2
 838 926 997 946 1022 1120 c 0
 1047 1300 910 1311 662 1311 c 2
 586 1311 l 1
 532 926 l 1
563 1706 m 0
 493 1706 414 1651 340 1579 c 1
 756 1579 l 1
 705 1649 639 1706 563 1706 c 0
EndSplineSet
EndChar

StartChar: uni0213
Encoding: 409 531 319
Width: 684
GlyphClass: 2
Flags: W
HStem: 0 21G<53 352.801> 911 275<540.901 681.394> 1282 262<421.44 632.792>
LayerCount: 2
Fore
SplineSet
569 1544 m 0
 770 1544 870 1393 911 1280 c 1
 782 1165 l 1
 805 1157 817 1151 817 1151 c 1
 772 831 l 1
 772 831 684 911 664 911 c 0
 601 911 465 821 465 821 c 1
 350 0 l 1
 53 0 l 1
 215 1149 l 1
 262 1153 l 1
 156 1280 l 1
 238 1405 383 1544 569 1544 c 0
676 1186 m 2
 682 1186 l 1
 641 1239 590 1282 535 1282 c 0
 469 1282 397 1229 334 1161 c 1
 469 1178 l 1
 467 1096 l 1
 533 1149 608 1186 676 1186 c 2
EndSplineSet
EndChar

StartChar: uni0216
Encoding: 410 534 320
Width: 1437
GlyphClass: 2
Flags: W
HStem: -37 266<561.631 887.48> 1559 20G<298.173 621 1197.19 1524> 1706 270<803.059 1035.95>
LayerCount: 2
Fore
SplineSet
965 1976 m 0
 1182 1976 1297 1821 1346 1706 c 1
 1143 1536 l 1
 1088 1624 1020 1706 928 1706 c 0
 842 1706 746 1628 666 1536 c 1
 512 1706 l 1
 598 1831 760 1976 965 1976 c 0
721 229 m 0
 926 229 1026 342 1079 719 c 2
 1200 1579 l 1
 1524 1579 l 1
 1403 723 l 2
 1317 117 1024 -37 684 -37 c 0
 342 -37 94 117 180 723 c 2
 301 1579 l 1
 621 1579 l 1
 500 719 l 2
 447 342 516 229 721 229 c 0
EndSplineSet
EndChar

StartChar: uni0217
Encoding: 411 535 321
Width: 1073
GlyphClass: 2
Flags: W
HStem: -16 260<418.619 610.45> 0 21G<692 946.84> 1282 262<561.704 769.351>
LayerCount: 2
Fore
SplineSet
1110 1169 m 1xa0
 944 0 l 1
 692 0 l 1x60
 694 78 l 1
 618 23 526 -16 434 -16 c 0
 198 -16 64 123 111 459 c 2
 211 1169 l 1
 389 1169 l 1
 295 1280 l 1
 377 1405 523 1544 711 1544 c 0
 914 1544 1016 1393 1057 1280 c 1
 930 1169 l 1
 1110 1169 l 1xa0
674 1282 m 0
 611 1282 540 1232 481 1169 c 1
 508 1169 l 1
 408 459 l 2
 388 307 413 244 483 244 c 0xa0
 573 244 694 346 694 346 c 1
 811 1169 l 1
 834 1169 l 1
 791 1228 735 1282 674 1282 c 0
EndSplineSet
EndChar

StartChar: caron
Encoding: 433 711 343
Width: 1881
GlyphClass: 2
Flags: HW
LayerCount: 2
Fore
SplineSet
902 563 m 4
 1138 563 l 4
 1511 1182 l 4
 1238 1182 l 4
 1043 738 l 4
 974 1182 l 4
 702 1182 l 4
 902 563 l 4
EndSplineSet
EndChar

StartChar: breve
Encoding: 434 728 344
Width: 654
GlyphClass: 2
Flags: W
HStem: 0 183<575.876 918.651>
VStem: 325 186<242.641 360>
LayerCount: 2
Fore
SplineSet
741 183 m 4
 932 182 990 272 1021 360 c 5
 1207 360 l 5
 1133 108 971 0 716 0 c 4
 461 0 329 108 325 360 c 5
 511 360 l 5
 517 272 548 184 741 183 c 4
EndSplineSet
EndChar

StartChar: ring
Encoding: 436 730 346
Width: 273
GlyphClass: 2
Flags: HW
LayerCount: 2
Fore
SplineSet
443 543 m 4
 423 400 319 310 182 310 c 4
 46 310 -37 399 -17 543 c 4
 4 690 114 773 246 773 c 4
 377 773 464 692 443 543 c 4
126 541 m 0
 122 511 125 446 199 446 c 0
 272 446 294 509 298 540 c 0
 302 571 300 631 224 631 c 0
 167 631 134 601 126 541 c 0
EndSplineSet
EndChar

StartChar: ogonek
Encoding: 437 731 347
Width: 348
GlyphClass: 2
Flags: W
HStem: -406 211<1161.33 1371.47>
VStem: 928.547 225.959<-186.822 -15.5506>
LayerCount: 2
Fore
SplineSet
1446 -104 m 1
 1446 -328 l 1
 1446 -328 1341 -406 1208 -406 c 0
 998.307 -406 928.547 -270 928.547 -178 c 0
 928.547 36 1104 142 1364 178 c 1
 1364 92 l 1
 1187.28 25.9234 1154.51 -72.8193 1154.51 -108.523 c 0
 1154.51 -153.294 1170 -195 1250.86 -195 c 0
 1318.86 -195 1446 -104 1446 -104 c 1
EndSplineSet
EndChar

StartChar: hungarumlaut
Encoding: 439 733 349
Width: 1362
GlyphClass: 2
Flags: HW
LayerCount: 2
Fore
SplineSet
652 18 m 1
 849 591 l 1
 1096 591 l 1
 763 18 l 1
 652 18 l 1
464 18 m 1
 352 18 l 1
 408 251 457 442 497 591 c 1
 734 591 l 1
 464 18 l 1
EndSplineSet
EndChar

StartChar: pi
Encoding: 440 960 350
Width: 1214
GlyphClass: 2
Flags: W
HStem: -18 270<784 1076.61> -4 278<45 178.819> 858 264<341.682 442 731 801 1102 1260.77>
DStem2: 672 406 1024 580 0.27444 0.961604<-70.1661 470.048>
LayerCount: 2
Fore
SplineSet
672 406 m 2xa0
 801 858 l 1
 731 858 l 1
 590 467 l 2
 426 8 217 -4 45 -4 c 1
 39 119 l 1
 35 160 33 225 35 274 c 1x60
 234 274 280 424 442 858 c 1
 274 858 l 1
 317 995 l 2
 327 1024 344 1091 356 1122 c 1
 1323 1122 l 1
 1296 1022 l 2
 1282 973 1257 887 1247 858 c 1
 1102 858 l 1
 1024 580 l 2
 995 482 952 346 946 291 c 0
 942 264 942 252 950 252 c 0
 1009 252 1188 338 1188 338 c 1
 1172 291 1095 72 1077 25 c 1
 1077 25 974 -18 868 -18 c 0
 700 -18 614 66 645 285 c 0
 651 324 662 367 672 406 c 2xa0
EndSplineSet
EndChar

StartChar: afii10051
Encoding: 442 1026 352
Width: 1148
GlyphClass: 2
Flags: W
HStem: -227 270<584.286 746.192> 0 21G<55 375.762> 954 269<597.478 826.354> 1329 250<176 244 559 1266>
LayerCount: 2
Fore
SplineSet
559 1329 m 1x70
 530 1145 l 1
 600 1186 696 1223 786 1223 c 0
 1083 1223 1204 1063 1157 731 c 2
 1077 162 l 2
 1040 -94 946 -227 688 -227 c 0
 561 -227 426 -139 426 -139 c 1
 467 154 l 1
 467 154 637 43 713 43 c 0xb0
 736 43 750 86 754 125 c 2
 766 244 l 1
 836 731 l 2
 859 887 828 954 748 954 c 0
 625 954 489 840 489 840 c 1
 373 0 l 1
 55 0 l 1
 244 1329 l 1
 139 1329 l 1
 176 1579 l 1
 1300 1579 l 1
 1266 1329 l 1
 559 1329 l 1x70
EndSplineSet
EndChar

StartChar: afii10058
Encoding: 448 1033 358
Width: 2043
GlyphClass: 2
Flags: W
HStem: 0 268<1260 1596.63> 700 271<1358 1645.62> 1331 244<694 1085>
LayerCount: 2
Fore
SplineSet
1442 1575 m 1
 1358 971 l 1
 1425 971 l 1
 1857 965 2081 837 2030 479 c 0
 1979 117 1722 0 1290 0 c 2
 899 0 l 1
 1085 1331 l 1
 694 1331 l 1
 555 483 l 1
 510 186 294 -25 61 -84 c 1
 12 131 l 1
 186 242 217 332 242 504 c 1
 416 1575 l 1
 1442 1575 l 1
1319 700 m 1
 1260 268 l 1
 1327 268 l 2
 1556 268 1695 305 1720 483 c 0
 1745 661 1618 700 1389 700 c 2
 1319 700 l 1
EndSplineSet
EndChar

StartChar: afii10059
Encoding: 449 1034 359
Width: 2039
GlyphClass: 2
Flags: W
HStem: 0 268<1210 1547.45> 700 271<1309 1598.34> 705 241<551 952> 1559 20G<316.175 641 1072.14 1395>
LayerCount: 2
Fore
SplineSet
1980 479 m 0xd0
 1929 117 1673 0 1241 0 c 2
 854 0 l 1
 952 705 l 1
 518 705 l 1
 418 0 l 1
 96 0 l 1
 319 1579 l 1
 641 1579 l 1
 551 946 l 1
 985 946 l 1xb0
 1075 1575 l 1
 1395 1575 l 1
 1309 971 l 1
 1378 971 l 1
 1810 965 2031 837 1980 479 c 0xd0
1272 700 m 1xd0
 1210 268 l 1
 1280 268 l 2
 1509 268 1644 305 1669 483 c 0
 1694 661 1568 700 1339 700 c 2
 1272 700 l 1xd0
EndSplineSet
EndChar

StartChar: afii10060
Encoding: 450 1035 360
Width: 1148
GlyphClass: 2
Flags: W
HStem: 0 21G<55 375.762 733 1057.79> 954 269<597.054 826.354> 1311 268<176 240 557 1264>
LayerCount: 2
Fore
SplineSet
557 1311 m 1
 535 1149 l 1
 605 1190 690 1223 786 1223 c 0
 1083 1223 1204 1063 1157 731 c 2
 1055 0 l 1
 733 0 l 1
 836 731 l 2
 859 887 828 954 748 954 c 0
 625 954 489 840 489 840 c 1
 373 0 l 1
 55 0 l 1
 240 1311 l 1
 137 1311 l 1
 176 1579 l 1
 1300 1579 l 1
 1264 1311 l 1
 557 1311 l 1
EndSplineSet
EndChar

StartChar: afii10018
Encoding: 454 1041 364
Width: 1267
GlyphClass: 2
Flags: W
HStem: 0 268<440 776.66> 700 271<539 825.456> 1311 268<586 1192>
LayerCount: 2
Fore
SplineSet
301 1579 m 1
 1229 1579 l 1
 1192 1311 l 1
 586 1311 l 1
 539 971 l 1
 604 971 l 1
 1038 965 1261 837 1210 479 c 0
 1159 117 903 0 469 0 c 2
 80 0 l 1
 301 1579 l 1
500 700 m 1
 440 268 l 1
 506 268 l 2
 737 268 874 305 899 483 c 0
 924 661 798 700 567 700 c 2
 500 700 l 1
EndSplineSet
EndChar

StartChar: afii10020
Encoding: 456 1043 366
Width: 1411
GlyphClass: 2
Flags: W
HStem: -2 21G<78 403.836> 1331 240<590 1294>
LayerCount: 2
Fore
SplineSet
1294 1331 m 1
 590 1331 l 1
 401 -2 l 1
 78 -2 l 1
 299 1571 l 1
 1327 1571 l 1
 1294 1331 l 1
EndSplineSet
EndChar

StartChar: afii10024
Encoding: 458 1046 368
Width: 1214
GlyphClass: 2
Flags: W
HStem: 0 21G<137 455.783 825.648 1202> 1053 299<1083.92 1263.15>
LayerCount: 2
Fore
SplineSet
528 539 m 1
 453 0 l 1
 137 0 l 1
 328 1346 l 1
 641 1346 l 1
 565 811 l 1
 592 811 l 1
 842 1155 l 1
 940 1284 1030 1352 1139 1352 c 0
 1207 1352 1323 1290 1323 1290 c 1
 1253 1014 l 1
 1253 1014 1151 1053 1137 1053 c 0
 1123 1053 1102 1032 1071 993 c 2
 938 819 l 1
 940 819 l 1
 922 792 897 766 879 739 c 1
 815 672 l 1
 827 643 852 615 868 590 c 2
 1202 0 l 1
 836 0 l 1
 557 539 l 1
 528 539 l 1
EndSplineSet
EndChar

StartChar: afii10025
Encoding: 459 1047 369
Width: 1247
GlyphClass: 2
Flags: W
HStem: -39 277<377.021 808.404> 631 303<507.85 877.417> 1327 275<524.722 950.255>
LayerCount: 2
Fore
SplineSet
465 631 m 1
 485 778 l 2
 491 821 518 934 518 934 c 1
 860 934 l 1
 936 963 991 1038 1001 1118 c 2
 1006 1139 l 1
 1012 1239 977 1327 760 1327 c 0
 576 1327 303 1204 303 1204 c 1
 344 1495 l 1
 344 1495 571 1602 827 1602 c 0
 1226 1602 1356 1384 1317 1108 c 0
 1299 979 1239 860 1120 780 c 1
 1206 700 1241 578 1225 459 c 0
 1221 436 1214 409 1212 391 c 1
 1151 151 977 -39 598 -39 c 0
 342 -39 143 70 143 70 c 1
 184 362 l 1
 184 362 422 238 608 238 c 0
 825 238 885 328 905 426 c 1
 907 446 l 2
 917 524 897 600 819 631 c 1
 465 631 l 1
EndSplineSet
EndChar

StartChar: afii10026
Encoding: 460 1048 370
Width: 1476
GlyphClass: 2
Flags: W
HStem: 0 21G<109 412.691 1042 1354.8> 1559 20G<327.201 641 1197.56 1573>
LayerCount: 2
Fore
SplineSet
641 1579 m 1
 522 737 l 1
 1214 1579 l 1
 1573 1579 l 1
 1352 0 l 1
 1042 0 l 1
 1200 1110 l 1
 440 223 l 1
 410 0 l 1
 109 0 l 1
 330 1579 l 1
 641 1579 l 1
EndSplineSet
EndChar

StartChar: afii10029
Encoding: 463 1051 373
Width: 1263
GlyphClass: 2
Flags: W
HStem: 0 272<29.4199 287.311> 1321 250<802.07 1137>
LayerCount: 2
Fore
SplineSet
201 0 m 0
 84 0 -23 63 -23 63 c 1
 -12 330 l 1
 -12 330 156 272 207 272 c 0
 342 272 387 514 457 1010 c 0
 480 1168 506 1571 506 1571 c 1
 1497 1571 l 1
 1276 0 l 1
 952 0 l 1
 1137 1321 l 1
 805 1321 l 1
 799 1233 786 1085 772 979 c 0
 657 156 520 0 201 0 c 0
EndSplineSet
EndChar

StartChar: afii10033
Encoding: 467 1055 377
Width: 1415
GlyphClass: 2
Flags: W
HStem: 0 21G<82 403.84 905 1229.81> 1331 242<590 1092>
LayerCount: 2
Fore
SplineSet
303 1573 m 1
 1448 1573 l 1
 1227 0 l 1
 905 0 l 1
 1092 1331 l 1
 590 1331 l 1
 401 0 l 1
 82 0 l 1
 303 1573 l 1
EndSplineSet
EndChar

StartChar: afii10037
Encoding: 471 1059 381
Width: 1011
GlyphClass: 2
Flags: W
HStem: 1553 20G<125 468.795 890.412 1241>
LayerCount: 2
Fore
SplineSet
125 1573 m 1
 465 1573 l 1
 598 872 l 1
 899 1573 l 1
 1241 1573 l 1
 686 416 l 1
 606 287 538 -14 104 -57 c 1
 47 186 l 1
 244 223 305 264 387 440 c 1
 272 934 l 1
 125 1573 l 1
EndSplineSet
EndChar

StartChar: afii10038
Encoding: 472 1060 382
Width: 2025
GlyphClass: 2
Flags: W
HStem: -37 277<579.603 810.09 1160.13 1444.58> 1331 275<715.537 995.414 1349.46 1582.62>
LayerCount: 2
Fore
SplineSet
852 264 m 1
 997 1305 l 1
 964 1323 923 1331 874 1331 c 0
 677 1331 538 1179 483 784 c 0
 428 389 528 240 721 240 c 0
 768 240 811 246 852 264 c 1
1038 1597 m 1
 1051 1686 l 1
 1360 1686 l 1
 1348 1593 l 1
 1389 1601 1434 1606 1479 1606 c 0
 1837 1606 2089 1384 2005 784 c 0
 1921 184 1609 -37 1247 -37 c 0
 1202 -37 1159 -33 1120 -25 c 1
 1108 -102 l 1
 801 -102 l 1
 811 -25 l 1
 774 -33 725 -37 682 -37 c 0
 322 -37 74 184 158 784 c 0
 242 1384 555 1606 911 1606 c 0
 956 1606 1001 1603 1038 1597 c 1
1307 1305 m 1
 1159 264 l 1
 1194 248 1243 240 1286 240 c 0
 1481 240 1624 389 1679 784 c 0
 1734 1179 1639 1331 1440 1331 c 0
 1399 1331 1346 1321 1307 1305 c 1
EndSplineSet
EndChar

StartChar: afii10040
Encoding: 474 1062 384
Width: 1417
GlyphClass: 2
Flags: W
HStem: 0 242<440 989> 1553 20G<300.19 627 1173.19 1495>
LayerCount: 2
Fore
SplineSet
82 0 m 1
 303 1573 l 1
 627 1573 l 1
 440 242 l 1
 989 242 l 1
 1176 1573 l 1
 1495 1573 l 1
 1274 0 l 1
 82 0 l 1
EndSplineSet
EndChar

StartChar: afii10041
Encoding: 475 1063 385
Width: 1126
GlyphClass: 2
Flags: W
HStem: 0 21G<756 1077.81> 530 271<473.785 831> 1553 20G<216.169 539 974.176 1296>
LayerCount: 2
Fore
SplineSet
1296 1573 m 1
 1075 0 l 1
 756 0 l 1
 831 532 l 1
 739 530 592 530 498 530 c 0
 236 530 92 678 141 1022 c 2
 219 1573 l 1
 539 1573 l 1
 461 1022 l 2
 438 868 467 801 547 801 c 2
 868 801 l 1
 977 1573 l 1
 1296 1573 l 1
EndSplineSet
EndChar

StartChar: afii10042
Encoding: 476 1064 386
Width: 1697
GlyphClass: 2
Flags: W
HStem: 0 242<444 686 1008 1249> 1551 20G<306.212 631 869.201 1194 1433.19 1755>
LayerCount: 2
Fore
SplineSet
90 0 m 1
 309 1571 l 1
 631 1571 l 1
 444 242 l 1
 686 242 l 1
 872 1571 l 1
 1194 1571 l 1
 1008 242 l 1
 1249 242 l 1
 1436 1573 l 1
 1755 1573 l 1
 1536 0 l 1
 90 0 l 1
EndSplineSet
EndChar

StartChar: afii10043
Encoding: 477 1065 387
Width: 1697
GlyphClass: 2
Flags: W
HStem: 0 242<444 686 1008 1249> 1551 20G<306.212 631 869.201 1194 1433.19 1755>
LayerCount: 2
Fore
SplineSet
90 0 m 1
 309 1571 l 1
 631 1571 l 1
 444 242 l 1
 686 242 l 1
 872 1571 l 1
 1194 1571 l 1
 1008 242 l 1
 1249 242 l 1
 1436 1573 l 1
 1755 1573 l 1
 1536 0 l 1
 90 0 l 1
EndSplineSet
EndChar

StartChar: afii10044
Encoding: 478 1066 388
Width: 1163
GlyphClass: 2
Flags: W
HStem: 0 268<440 741.767> 719 254<539 803.462> 1557 20G<296.197 625>
LayerCount: 2
Fore
SplineSet
864 483 m 0
 891 669 790 719 567 719 c 2
 504 719 l 1
 440 268 l 1
 473 268 l 2
 700 268 839 305 864 483 c 0
600 973 m 2
 993 973 1227 846 1176 479 c 0
 1125 117 866 0 436 0 c 2
 78 0 l 1
 299 1577 l 1
 625 1577 l 1
 539 973 l 1
 600 973 l 2
EndSplineSet
EndChar

StartChar: afii10045
Encoding: 479 1067 389
Width: 1171
GlyphClass: 2
Flags: W
HStem: 0 268<446 749.767> 719 254<547 809.647> 1559 18G<304.197 631 1336.2 1661>
LayerCount: 2
Fore
SplineSet
1438 0 m 1
 1118 0 l 1
 1339 1579 l 1
 1661 1579 l 1
 1438 0 l 1
874 483 m 0
 901 669 798 719 575 719 c 2
 510 719 l 1
 446 268 l 1
 481 268 l 2
 708 268 849 305 874 483 c 0
606 973 m 2
 999 973 1235 846 1184 479 c 0
 1133 117 874 0 444 0 c 2
 86 0 l 1
 307 1577 l 1
 631 1577 l 1
 547 973 l 1
 606 973 l 2
EndSplineSet
EndChar

StartChar: afii10046
Encoding: 480 1068 390
Width: 1163
GlyphClass: 2
Flags: W
HStem: 0 268<440 741.767> 719 254<539 803.462> 1557 20G<296.197 625>
LayerCount: 2
Fore
SplineSet
864 483 m 0
 891 669 790 719 567 719 c 2
 504 719 l 1
 440 268 l 1
 473 268 l 2
 700 268 839 305 864 483 c 0
600 973 m 2
 993 973 1227 846 1176 479 c 0
 1125 117 866 0 436 0 c 2
 78 0 l 1
 299 1577 l 1
 625 1577 l 1
 539 973 l 1
 600 973 l 2
EndSplineSet
EndChar

StartChar: afii10048
Encoding: 481 1070 391
Width: 1935
GlyphClass: 2
Flags: W
HStem: -37 277<1055.89 1359.77> 0 21G<94 420.759> 1331 275<1198.55 1497.95> 1559 20G<314.175 639>
LayerCount: 2
Fore
SplineSet
1356 1331 m 0xa0
 1157 1331 1020 1179 965 784 c 0
 910 389 1009 240 1202 240 c 0
 1395 240 1540 389 1595 784 c 0
 1650 1179 1553 1331 1356 1331 c 0xa0
639 1579 m 1x50
 549 940 l 1
 668 940 l 1
 781 1423 1067 1606 1395 1606 c 0
 1751 1606 2005 1384 1921 784 c 0
 1837 184 1523 -37 1163 -37 c 0xa0
 823 -37 582 166 629 696 c 1
 514 696 l 1
 418 0 l 1
 94 0 l 1
 317 1579 l 1
 639 1579 l 1x50
EndSplineSet
EndChar

StartChar: afii10049
Encoding: 482 1071 392
Width: 1267
GlyphClass: 2
Flags: W
HStem: 0 21G<12 326.773 791 1114.8> 666 256<534.207 883> 1311 268<565.046 975>
LayerCount: 2
Fore
SplineSet
12 0 m 1
 74 428 l 2
 101 614 160 729 295 801 c 1
 203 869 150 977 170 1120 c 0
 231 1552 549 1579 922 1579 c 2
 1333 1579 l 1
 1112 0 l 1
 791 0 l 1
 883 666 l 1
 776 666 l 2
 514 666 410 618 385 440 c 2
 324 0 l 1
 12 0 l 1
920 922 m 1
 975 1311 l 1
 885 1311 l 2
 637 1311 496 1300 471 1120 c 0
 446 946 588 922 836 922 c 2
 920 922 l 1
EndSplineSet
EndChar

StartChar: afii10066
Encoding: 484 1073 394
Width: 958
GlyphClass: 2
Flags: W
HStem: -16 254<402.317 603.717> 1317 20G<603.154 645>
LayerCount: 2
Fore
SplineSet
993 1217 m 1
 993 1217 832 1143 707 1094 c 1
 955 1047 1022 795 987 541 c 0
 948 258 783 -16 459 -16 c 0
 78 -16 53 340 98 655 c 0
 161 1101 328 1205 590 1311 c 1
 647 1337 l 1
 645 1335 l 1
 944 1470 l 1
 993 1217 l 1
496 238 m 0
 611 238 686 346 713 541 c 0
 740 736 697 852 582 852 c 0
 467 852 392 736 365 541 c 0
 338 346 381 238 496 238 c 0
EndSplineSet
EndChar

StartChar: afii10067
Encoding: 485 1074 395
Width: 1073
GlyphClass: 2
Flags: W
HStem: -2 244<387 650.688> 479 238<455 693.271> 924 245<483 728.227>
LayerCount: 2
Fore
SplineSet
219 1167 m 1
 535 1169 l 1
 852 1169 1079 1132 1036 829 c 0
 1022 729 977 655 905 604 c 1
 977 557 1007 486 991 373 c 0
 950 80 753 -4 436 -2 c 2
 55 0 l 1
 219 1167 l 1
422 481 m 1
 387 242 l 1
 586 242 682 244 700 373 c 0
 712 459 667 471 569 481 c 1
 553 479 530 479 510 479 c 2
 422 481 l 1
483 924 m 1
 455 715 l 1
 473 715 l 2
 493 715 514 717 532 717 c 2
 571 717 l 2
 686 717 731 731 745 829 c 0
 757 923 655 924 514 924 c 2
 483 924 l 1
EndSplineSet
EndChar

StartChar: afii10068
Encoding: 486 1075 396
Width: 1261
GlyphClass: 2
Flags: W
HStem: 0 21G<72 375.817> 930 237<504 909>
DStem2: 72 0 373 0 0.139173 0.990268<41.8911 981.072>
LayerCount: 2
Fore
SplineSet
942 1167 m 1
 909 930 l 1
 504 930 l 1
 373 0 l 1
 72 0 l 1
 238 1167 l 1
 942 1167 l 1
EndSplineSet
EndChar

StartChar: afii10069
Encoding: 487 1076 397
Width: 1245
GlyphClass: 2
Flags: W
HStem: 0 238<463 680> 930 237<559 811>
LayerCount: 2
Fore
SplineSet
365 1167 m 1
 1145 1167 l 1
 961 -139 l 1
 659 -139 l 1
 680 0 l 1
 369 0 l 1
 283 -106 123 -170 -27 -209 c 1
 10 63 l 1
 149 124 172 178 190 268 c 2
 365 1167 l 1
463 238 m 1
 713 238 l 1
 811 930 l 1
 559 930 l 1
 463 238 l 1
EndSplineSet
EndChar

StartChar: afii10072
Encoding: 489 1078 399
Width: 1058
GlyphClass: 2
Flags: W
HStem: 0 21G<-111 230.5 352 625.645 760.496 1083>
LayerCount: 2
Fore
SplineSet
623 0 m 1
 352 0 l 1
 385 233 l 1
 324 155 258 76 203 0 c 1
 -111 0 l 1
 342 555 l 1
 41 1110 l 1
 362 1110 l 1
 477 879 l 1
 483 953 498 1053 504 1110 c 1
 772 1110 l 1
 739 877 l 1
 813 969 l 1
 813 967 l 1
 926 1110 l 1
 1243 1110 l 1
 784 557 l 1
 1083 0 l 1
 770 0 l 1
 655 242 l 1
 623 0 l 1
EndSplineSet
EndChar

StartChar: afii10073
Encoding: 490 1079 400
Width: 1107
GlyphClass: 2
Flags: W
HStem: 0 258<228.045 515.586> 475 240<348 515.814> 909 256<319.399 596.342>
LayerCount: 2
Fore
SplineSet
518 909 m 1
 485 909 l 1
 383 903 182 807 182 807 c 1
 221 1090 l 1
 274 1110 l 1
 274 1114 l 1
 325 1134 387 1163 514 1165 c 1
 524 1165 l 2
 751 1165 924 1085 887 817 c 0
 873 717 824 637 758 586 c 1
 807 531 831 448 819 354 c 0
 780 82 563 2 346 0 c 1
 338 0 l 2
 234 0 174 29 135 49 c 1
 139 49 l 1
 80 74 l 1
 119 354 l 1
 119 354 291 258 391 258 c 0
 473 258 527 278 537 350 c 0
 549 444 493 475 313 475 c 1
 348 715 l 1
 530 715 594 735 606 827 c 0
 616 895 579 915 518 909 c 1
EndSplineSet
EndChar

StartChar: afii10074
Encoding: 491 1080 401
Width: 1056
GlyphClass: 2
Flags: W
HStem: -23 195<832.552 1044.5> 1147 20G<214.184 492 804.034 1118>
LayerCount: 2
Fore
SplineSet
492 1167 m 1
 414 625 l 1
 602 877 l 1
 819 1167 l 1
 1118 1167 l 1
 1001 340 l 1
 997 313 993 225 995 211 c 0
 997 191 1014 172 1030 172 c 0
 1065 172 1110 233 1165 348 c 1
 1180 381 l 1
 1235 344 l 1
 1100 59 1024 -23 887 -23 c 0
 670 -23 711 227 723 319 c 1
 778 715 l 1
 346 154 l 1
 324 -12 l 1
 51 -12 l 1
 217 1167 l 1
 492 1167 l 1
EndSplineSet
EndChar

StartChar: afii10076
Encoding: 493 1082 403
Width: 995
GlyphClass: 2
Flags: W
HStem: 0 21G<61 356.793 682.079 1038> 1147 20G<222.189 518>
VStem: 1114 72<835.159 966.939>
LayerCount: 2
Fore
SplineSet
1194 1169 m 1
 629 631 l 1
 688 549 l 1
 1038 0 l 1
 694 0 l 1
 424 453 l 1
 422 451 l 2
 420 449 l 2
 416 444 l 1
 354 0 l 1
 61 0 l 1
 225 1167 l 1
 518 1167 l 1
 467 807 l 1
 838 1169 l 1
 817 1149 l 0
 850 1178 903 1194 956 1194 c 0
 1079 1194 1139 1114 1186 844 c 1
 1126 807 l 1
 1114 864 l 2
 1094 962 1063 1016 1032 1016 c 0
 1024 1016 1027 999 1004 991 c 0
 1194 1169 l 1
EndSplineSet
EndChar

StartChar: afii10077
Encoding: 494 1083 404
Width: 1241
GlyphClass: 2
Flags: W
HStem: -20 208<799 1092.5> 930 237<604 823>
LayerCount: 2
Fore
SplineSet
369 1167 m 1
 1155 1167 l 1
 1040 346 l 1
 1036 323 1036 237 1038 227 c 0
 1040 204 1055 188 1073 188 c 0
 1112 188 1158 256 1219 383 c 1
 1225 397 l 1
 1284 358 l 1
 1143 61 1065 -20 918 -20 c 0
 680 -20 727 245 737 319 c 1
 823 930 l 1
 604 930 l 1
 567 748 529 565 494 383 c 1
 449 76 221 -13 2 -68 c 1
 37 205 l 1
 178 268 197 322 213 408 c 1
 369 1167 l 1
EndSplineSet
EndChar

StartChar: afii10078
Encoding: 495 1084 405
Width: 1720
GlyphClass: 2
Flags: W
HStem: 0 21G<66 309.9 457.333 727.668 872 1161.81> 1147 20G<226.207 559.849 943.366 1323>
LayerCount: 2
Fore
SplineSet
461 0 m 1
 375 469 l 1
 307 0 l 1
 66 0 l 1
 229 1167 l 1
 557 1167 l 1
 655 479 l 1
 952 1167 l 1
 1323 1167 l 1
 1159 0 l 1
 872 0 l 1
 924 473 l 1
 719 0 l 1
 461 0 l 1
EndSplineSet
EndChar

StartChar: afii10079
Encoding: 496 1085 406
Width: 1204
GlyphClass: 2
Flags: W
HStem: -20 208<864 1158.5> 0 21G<82 385.793> 487 238<483 825> 1147 20G<243.189 547 919.104 1221>
LayerCount: 2
Fore
SplineSet
803 319 m 1xb0
 825 487 l 1
 451 487 l 1
 383 0 l 1
 82 0 l 1x70
 246 1167 l 1
 547 1167 l 1
 483 725 l 1
 858 725 l 1
 922 1167 l 1
 1221 1167 l 1
 1104 346 l 1
 1100 323 1100 237 1102 227 c 0
 1104 204 1121 188 1139 188 c 0
 1178 188 1221 256 1282 383 c 1
 1288 397 l 1
 1348 358 l 1
 1207 61 1130 -20 983 -20 c 0
 745 -20 793 245 803 319 c 1xb0
EndSplineSet
EndChar

StartChar: afii10084
Encoding: 501 1090 411
Width: 901
GlyphClass: 2
Flags: W
HStem: 0 21G<281 596.5> 907 260<111 410 707 1034>
DStem2: 281 0 575 0 0.139173 0.990268<40.9169 916.126>
LayerCount: 2
Fore
SplineSet
1034 907 m 1
 707 907 l 1
 668 631 618 299 575 0 c 1
 281 0 l 1
 410 907 l 1
 74 907 l 1
 111 1167 l 1
 1071 1167 l 1
 1034 907 l 1
EndSplineSet
EndChar

StartChar: afii10086
Encoding: 503 1092 413
Width: 1337
GlyphClass: 2
Flags: W
HStem: -25 236<791 896.605> 885 241<512.587 618 920 982.087> 1326 20G<681.182 950>
DStem2: 471 -168 737 -168 0.139173 0.990268<37.02 144.531 419.847 1063.21 1343.9 1528.91>
LayerCount: 2
Fore
SplineSet
737 -168 m 1
 471 -168 l 1
 492 -25 l 1
 487 -25 l 2
 141 -25 61 254 102 549 c 0
 143 848 307 1126 645 1126 c 2
 653 1126 l 1
 684 1346 l 1
 950 1346 l 1
 920 1126 l 1
 936 1126 l 1
 1276 1124 1352 846 1311 549 c 0
 1270 254 1106 -25 762 -25 c 2
 758 -25 l 1
 737 -168 l 1
885 885 m 1
 791 211 l 1
 793 211 l 2
 920 211 989 342 1018 545 c 0
 1047 748 1014 885 887 885 c 2
 885 885 l 1
389 545 m 0
 364 371 403 250 524 219 c 1
 618 885 l 1
 614 885 l 2
 489 885 418 748 389 545 c 0
EndSplineSet
EndChar

StartChar: afii10088
Encoding: 505 1094 415
Width: 1255
GlyphClass: 2
Flags: W
HStem: 0 238<416 733> 1147 20G<245.189 547 861.18 1163>
VStem: 809 274<-147 -3.75>
LayerCount: 2
Fore
SplineSet
84 0 m 1
 248 1167 l 1
 547 1167 l 1
 416 238 l 1
 733 238 l 1
 864 1167 l 1
 1163 1167 l 1
 1034 240 l 1
 1112 240 l 1
 1096 117 l 2
 1086 41 1075 -41 1083 -147 c 1
 809 -147 l 1
 801 -73 797 -29 799 0 c 1
 84 0 l 1
EndSplineSet
EndChar

StartChar: afii10089
Encoding: 506 1095 416
Width: 952
GlyphClass: 2
Flags: W
HStem: -20 206<695.5 977.5> 299 262<442.153 621> 1147 20G<187.184 487 740.162 1040>
LayerCount: 2
Fore
SplineSet
926 346 m 1
 922 323 920 235 922 225 c 0
 924 202 940 186 958 186 c 0
 997 186 1041 254 1102 381 c 1
 1108 397 l 1
 1171 356 l 1
 1030 59 952 -20 805 -20 c 0
 586 -20 609 205 621 299 c 1
 467 299 l 2
 197 299 86 422 131 748 c 2
 190 1167 l 1
 487 1167 l 1
 428 748 l 2
 408 601 438 561 508 561 c 2
 657 561 l 1
 743 1167 l 1
 1040 1167 l 1
 926 346 l 1
EndSplineSet
EndChar

StartChar: afii10090
Encoding: 507 1096 417
Width: 1648
GlyphClass: 2
Flags: W
HStem: 0 238<422 608 907 1083> 1147 20G<251.189 553 736.18 1038 1209.22 1511>
LayerCount: 2
Fore
SplineSet
1348 0 m 1
 90 0 l 1
 254 1167 l 1
 553 1167 l 1
 422 238 l 1
 608 238 l 1
 739 1167 l 1
 1038 1167 l 1
 907 238 l 1
 1083 238 l 1
 1212 1167 l 1
 1511 1167 l 1
 1348 0 l 1
EndSplineSet
EndChar

StartChar: afii10091
Encoding: 508 1097 418
Width: 1644
GlyphClass: 2
Flags: W
HStem: 0 238<426 612 911 1085> 1147 20G<255.189 557 740.18 1040 1214.16 1516>
VStem: 1159 281<-147 -1.875>
LayerCount: 2
Fore
SplineSet
94 0 m 1
 258 1167 l 1
 557 1167 l 1
 426 238 l 1
 612 238 l 1
 743 1167 l 1
 1040 1167 l 1
 911 238 l 1
 1085 238 l 1
 1217 1167 l 1
 1516 1167 l 1
 1384 240 l 1
 1466 240 l 1
 1450 117 l 2
 1440 43 1430 -38 1440 -147 c 1
 1159 -147 l 1
 1153 -84 1147 -43 1151 0 c 1
 94 0 l 1
EndSplineSet
EndChar

StartChar: afii10092
Encoding: 509 1098 419
Width: 1001
GlyphClass: 2
Flags: W
HStem: 0 244<389 649.125> 465 244<453 673.786> 932 235<70 186>
LayerCount: 2
Fore
SplineSet
37 932 m 1
 70 1167 l 1
 518 1167 l 1
 453 709 l 1
 518 709 l 2
 813 709 1022 660 981 373 c 0
 940 80 751 -2 438 -2 c 1
 428 0 l 1
 55 0 l 1
 186 932 l 1
 37 932 l 1
420 465 m 1
 389 244 l 1
 461 244 l 2
 602 244 678 264 692 373 c 0
 704 463 600 465 459 465 c 2
 420 465 l 1
EndSplineSet
EndChar

StartChar: afii10093
Encoding: 510 1099 420
Width: 1386
GlyphClass: 2
Flags: W
HStem: -20 202<1083.5 1323.5> 0 244<440 701.213> 446 244<500 727.392>
LayerCount: 2
Fore
SplineSet
561 1110 m 1x60
 500 690 l 1
 567 690 l 2
 782 690 951 664 1010 535 c 1
 1092 1110 l 1
 1380 1110 l 1
 1272 334 l 1
 1268 311 1268 229 1270 219 c 0
 1272 199 1287 182 1305 182 c 0
 1342 182 1387 243 1444 358 c 1
 1452 379 l 1
 1511 344 l 1
 1374 59 1296 -20 1153 -20 c 0xa0
 1014 -20 964 76 958 170 c 1
 868 41 708 -2 487 -2 c 1
 477 0 l 1
 106 0 l 1
 262 1110 l 1
 561 1110 l 1x60
467 446 m 1
 440 244 l 1
 512 244 l 2x60
 655 244 727 264 741 362 c 0
 753 444 653 446 516 446 c 2
 467 446 l 1
EndSplineSet
EndChar

StartChar: afii10094
Encoding: 511 1100 421
Width: 1028
GlyphClass: 2
Flags: W
HStem: 0 244<412 668.281> 465 244<475 695.437> 1147 20G<239.189 541>
LayerCount: 2
Fore
SplineSet
541 1167 m 1
 475 709 l 1
 539 709 l 2
 836 709 1042 660 1001 373 c 0
 960 82 770 -2 457 -2 c 1
 449 0 l 1
 78 0 l 1
 242 1167 l 1
 541 1167 l 1
442 465 m 1
 412 244 l 1
 483 244 l 2
 624 244 699 264 713 373 c 0
 725 463 626 465 489 465 c 2
 442 465 l 1
EndSplineSet
EndChar

StartChar: afii10096
Encoding: 512 1102 422
Width: 1067
GlyphClass: 2
Flags: W
HStem: -16 260<431.823 651.602> 864 262<506.233 725.843>
LayerCount: 2
Fore
SplineSet
535 244 m 0
 664 244 745 356 772 553 c 0
 799 750 752 864 623 864 c 0
 496 864 410 750 383 553 c 0
 356 356 408 244 535 244 c 0
659 1126 m 0
 1005 1126 1104 848 1063 553 c 0
 1022 262 844 -16 498 -16 c 0
 154 -16 53 262 94 553 c 0
 135 848 315 1126 659 1126 c 0
EndSplineSet
EndChar

StartChar: afii10097
Encoding: 513 1103 423
Width: 1196
GlyphClass: 2
Flags: W
HStem: -23 201<611.5 888.5> 0 21G<-41 292.5> 940 227<424.333 641>
LayerCount: 2
Fore
SplineSet
555 319 m 1xa0
 575 471 l 1
 539 471 l 1
 444 311 l 2
 385 213 317 94 268 0 c 1
 -41 0 l 1x60
 268 522 l 1
 129 573 86 665 109 821 c 0
 154 1149 383 1167 645 1167 c 2
 956 1167 l 1
 840 342 l 1
 836 315 834 229 836 217 c 0
 838 194 854 178 870 178 c 0
 907 178 951 239 1008 358 c 1
 1020 387 l 1
 1075 348 l 1
 938 59 864 -23 723 -23 c 0
 500 -23 543 233 555 319 c 1xa0
608 700 m 1
 641 940 l 1
 483 940 399 932 383 821 c 0
 369 712 456 700 608 700 c 1
EndSplineSet
EndChar

StartChar: afii10106
Encoding: 520 1113 430
Width: 1716
GlyphClass: 2
Flags: W
HStem: -2 246<1012 1243.75> 465 244<1075 1272.53> 930 237<621 807>
LayerCount: 2
Fore
SplineSet
829 0 m 1
 676 0 l 1
 807 930 l 1
 621 930 l 1
 508 381 l 1
 463 74 229 -13 14 -68 c 1
 49 203 l 1
 192 266 226 322 242 408 c 2
 393 1167 l 1
 1139 1167 l 1
 1075 709 l 1
 1116 709 l 2
 1413 709 1620 660 1579 373 c 0
 1538 84 1345 -6 1032 -2 c 2
 829 0 l 1
1042 465 m 1
 1012 244 l 1
 1063 244 l 2
 1204 244 1276 264 1290 373 c 0
 1302 463 1206 465 1067 465 c 2
 1042 465 l 1
EndSplineSet
EndChar

StartChar: afii10107
Encoding: 521 1114 431
Width: 1789
GlyphClass: 2
Flags: W
HStem: 0 244<1108 1141 1147 1358.12> 487 238<500 842> 1147 20G<259.189 563 935.104 1235>
LayerCount: 2
Fore
SplineSet
774 0 m 1
 842 487 l 1
 467 487 l 1
 397 0 l 1
 98 0 l 1
 262 1167 l 1
 563 1167 l 1
 500 725 l 1
 874 725 l 1
 938 1167 l 1
 1235 1167 l 1
 1171 709 l 1
 1190 709 l 1
 1233 709 l 2
 1528 709 1731 664 1690 373 c 0
 1649 82 1460 -2 1147 -2 c 1
 1141 0 l 1
 774 0 l 1
1139 465 m 1
 1108 244 l 1
 1174 244 l 2
 1315 244 1389 264 1403 373 c 0
 1415 463 1317 464 1182 487 c 1
 1139 465 l 1
EndSplineSet
EndChar

StartChar: quotesinglbase
Encoding: 749 8218 659
Width: 411
GlyphClass: 2
Flags: W
HStem: -188 487
VStem: 6 393
LayerCount: 2
Fore
SplineSet
39 -12 m 1
 82 299 l 1
 399 299 l 1
 399 299 405 182 393 94 c 0
 370 -62 303 -129 92 -188 c 1
 92 -188 53 -119 51 -117 c 1
 98 -92 l 1
 71 -92 35 -84 6 -29 c 1
 43 -12 l 1
 39 -12 l 1
EndSplineSet
EndChar

StartChar: dagger
Encoding: 751 8224 661
Width: 1071
GlyphClass: 2
Flags: W
HStem: 0 21G<354 666.819> 901 260<240 481 827 1061>
LayerCount: 2
Fore
SplineSet
1061 901 m 1
 791 901 l 1
 664 0 l 1
 354 0 l 1
 481 901 l 1
 203 901 l 1
 240 1161 l 1
 518 1161 l 1
 555 1434 l 1
 866 1434 l 1
 827 1161 l 1
 1096 1161 l 1
 1061 901 l 1
EndSplineSet
EndChar

StartChar: daggerdbl
Encoding: 752 8225 662
Width: 1071
GlyphClass: 2
Flags: W
HStem: 0 21G<354 666.667> 270 258<152 393 737 969> 901 260<240 481 827 1061>
LayerCount: 2
Fore
SplineSet
1061 901 m 1
 791 901 l 1
 737 528 l 1
 1006 528 l 1
 969 270 l 1
 700 270 l 1
 664 0 l 1
 354 0 l 1
 393 270 l 1
 115 270 l 1
 152 528 l 1
 428 528 l 1
 481 901 l 1
 203 901 l 1
 240 1161 l 1
 518 1161 l 1
 555 1434 l 1
 866 1434 l 1
 827 1161 l 1
 1096 1161 l 1
 1061 901 l 1
EndSplineSet
EndChar

StartChar: bullet
Encoding: 753 8226 663
Width: 1122
GlyphClass: 2
Flags: W
HStem: 317 727<537.078 785.262>
LayerCount: 2
Fore
SplineSet
297 680 m 0
 326 883 510 1044 713 1044 c 0
 914 1044 1053 883 1024 680 c 0
 995 477 811 317 610 317 c 0
 407 317 268 477 297 680 c 0
EndSplineSet
EndChar

StartChar: dotlessi
Encoding: 764 305 674
Width: 539
GlyphClass: 2
Flags: W
HStem: 0 21G<109 422.81> 1140 20G<269.19 583>
VStem: 109 474
LayerCount: 2
Fore
SplineSet
420 0 m 1
 109 0 l 1
 272 1160 l 1
 583 1160 l 1
 420 0 l 1
EndSplineSet
EndChar

StartChar: dotlessj
Encoding: 765 567 675
Width: 606
GlyphClass: 2
Flags: W
HStem: -348 21G<32.7234 147.5> 1140 20G<333.182 646>
VStem: -24 670
LayerCount: 2
Fore
SplineSet
-24 -113 m 1
 92 -43 177 31 204 223 c 2
 336 1160 l 1
 646 1160 l 1
 512 203 l 2
 471 -89 257 -293 38 -348 c 1
 -24 -113 l 1
EndSplineSet
EndChar

StartChar: less
Encoding: 60 60 676
Width: 1103
Flags: W
HStem: -37 21G<868.359 898.857>
LayerCount: 2
Fore
SplineSet
187 476 m 13
 220 712 l 21
 1073 1225 l 5
 1032 924 l 5
 420 594 l 5
 939 264 l 5
 896 -37 l 5
 187 476 l 13
EndSplineSet
EndChar

StartChar: equal
Encoding: 61 61 677
Width: 1048
Flags: W
HStem: 240 262<128 1017> 584 262<176 1066>
LayerCount: 2
Fore
SplineSet
1066 584 m 5
 139 584 l 5
 176 846 l 5
 1103 846 l 5
 1066 584 l 5
1017 240 m 1
 91 240 l 1
 128 502 l 1
 1054 502 l 1
 1017 240 l 1
EndSplineSet
EndChar

StartChar: greater
Encoding: 62 62 678
Width: 1194
Flags: W
HStem: -37 21G<206.143 236.641>
LayerCount: 2
Fore
SplineSet
918 476 m 21
 209 -37 l 5
 166 264 l 5
 685 594 l 5
 73 924 l 5
 32 1225 l 5
 885 712 l 13
 918 476 l 21
EndSplineSet
EndChar

StartChar: quotedbl
Encoding: 34 34 679
Width: 1010
Flags: W
HStem: 309 643
VStem: 285 97<309 367.182> 594 97<309 367.182>
LayerCount: 2
Fore
SplineSet
594 309 m 5
 599 952 l 5
 847 952 l 5
 691 308 l 5
 594 309 l 5
285 309 m 1
 290 952 l 1
 538 952 l 1
 382 308 l 1
 285 309 l 1
EndSplineSet
EndChar

StartChar: braceleft
Encoding: 123 123 680
Width: 658
Flags: W
HStem: 1310 189<722.669 798>
VStem: 182 642
LayerCount: 2
Fore
SplineSet
650 982 m 4
 614 734 512 673 434 645 c 5
 504 615 590 540 557 307 c 4
 514 1 538 -21 611 -21 c 5
 584 -210 l 5
 392 -209 187 -138 243 262 c 4
 274 486 255 550 182 550 c 5
 209 739 l 5
 282 739 319 805 350 1027 c 4
 406 1427 631 1498 824 1499 c 5
 798 1310 l 5
 725 1310 694 1288 650 982 c 4
EndSplineSet
EndChar

StartChar: braceright
Encoding: 125 125 681
Width: 660
Flags: W
HStem: -210 189<90 163.876>
VStem: 61 621
LayerCount: 2
Fore
SplineSet
341 982 m 4
 388 1288 366 1310 298 1310 c 5
 328 1499 l 5
 507 1498 696 1427 633 1027 c 4
 598 805 614 739 682 739 c 5
 653 550 l 5
 585 550 549 486 514 262 c 4
 451 -138 240 -209 61 -210 c 5
 90 -21 l 5
 158 -21 186 1 234 307 c 4
 270 540 372 615 446 645 c 5
 381 673 303 734 341 982 c 4
EndSplineSet
EndChar

StartChar: sterling
Encoding: 766 163 682
Width: 980
Flags: W
HStem: 0 232<325 851> 563 109<149 149 496.881 876> 1061 261<517.47 838.438>
VStem: 252 252<409.477 563>
LayerCount: 2
Fore
SplineSet
252 564 m 1
 134 563 l 1
 149 667 l 1
 244 667 l 1
 243 662 161 811 181 956 c 4
 211 1166 384 1322 662 1322 c 4
 936 1322 1051 1186 1051 1189 c 5
 896 971 l 5
 896 971 820 1061 664 1061 c 4
 511 1061 471 975 462 909 c 4
 447 799 503 670 502 672 c 1
 892 672 l 1
 876 563 l 1
 504 563 l 1
 473 336 325 232 325 232 c 1
 884 232 l 1
 851 0 l 1
 41 0 l 1
 70 226 l 1
 161 335 l 1
 162 337 230 405 252 564 c 1
EndSplineSet
EndChar

StartChar: paragraph
Encoding: 767 182 683
Width: 1265
Flags: W
HStem: 0 21G<555 798.815 922 1162.81> 1428 149<997 1122>
LayerCount: 2
Fore
SplineSet
1382 1578 m 1
 1160 0 l 1
 922 0 l 5
 1122 1428 l 5
 997 1428 l 1
 796 0 l 1
 555 0 l 1
 655 711 l 1
 379 711 150 810 198 1155 c 0
 249 1515 551 1577 818 1577 c 2
 916 1577 l 1
 1382 1578 l 1
EndSplineSet
EndChar

StartChar: uni00AD
Encoding: 173 173 684
Width: 1048
Flags: W
HStem: 584 262<176 887>
LayerCount: 2
Fore
SplineSet
887 584 m 1
 139 584 l 1
 176 846 l 1
 1103 846 l 1
 1066 584 l 1
 1015 224 l 1
 837 224 l 1
 887 584 l 1
EndSplineSet
EndChar

StartChar: onequarter
Encoding: 768 188 685
Width: 1833
Flags: W
HStem: 96 205<1263 1398 1654 1754>
LayerCount: 2
Fore
SplineSet
411 -29 m 1
 1288 1541 l 1
 1487 1458 l 1
 603 -107 l 1
 411 -29 l 1
1562 1023 m 5
 1747 970 l 5
 1654 303 l 5
 1783 303 l 5
 1754 96 l 5
 1624 96 l 5
 1593 -125 l 5
 1367 -124 l 5
 1398 96 l 5
 980 96 l 5
 972 257 l 5
 1562 1023 l 5
1263 301 m 5
 1426 301 l 5
 1468 597 l 5
 1263 301 l 5
297 411 m 1
 397 1125 l 1
 273 1071 l 1
 230 1261 l 1
 512 1373 l 1
 672 1333 l 1
 542 411 l 1
 297 411 l 1
EndSplineSet
EndChar

StartChar: onehalf
Encoding: 769 189 686
Width: 1940
Flags: W
HStem: 96 214<1597 1844> 840 209<1440.48 1701.76>
LayerCount: 2
Fore
SplineSet
411 -29 m 5
 1288 1541 l 5
 1487 1458 l 5
 603 -107 l 5
 411 -29 l 5
297 411 m 1
 397 1125 l 1
 273 1071 l 1
 230 1261 l 1
 512 1373 l 1
 672 1333 l 1
 542 411 l 1
 297 411 l 1
1708 725 m 4
 1719 800 1691 840 1609 840 c 4
 1509 840 1345 756 1345 756 c 5
 1305 947 l 5
 1306 947 1499 1049 1655 1049 c 4
 1820 1049 1990 979 1960 763 c 4
 1942 637 1879 548 1719 413 c 6
 1597 310 l 5
 1874 310 l 5
 1844 96 l 5
 1206 96 l 5
 1230 270 l 5
 1503 489 l 6
 1579 550 1695 636 1708 725 c 4
EndSplineSet
EndChar

StartChar: threequarters
Encoding: 770 190 687
Width: 1920
Flags: W
HStem: 96 205<1265 1400 1656 1757> 409 206<79.1025 430.768> 889 197<294 422.871> 1302 209<213.526 506.502>
LayerCount: 2
Fore
SplineSet
1565 1023 m 5
 1750 970 l 5
 1656 303 l 5
 1786 303 l 5
 1757 96 l 5
 1627 96 l 5
 1596 -125 l 5
 1369 -124 l 5
 1400 96 l 5
 983 96 l 5
 975 257 l 5
 1565 1023 l 5
1265 301 m 5
 1429 301 l 5
 1471 597 l 5
 1265 301 l 5
413 -29 m 1
 1290 1541 l 1
 1489 1458 l 1
 606 -107 l 1
 413 -29 l 1
515 1213 m 0
 524 1275 475 1302 405 1302 c 0
 313 1302 185 1246 185 1246 c 2
 126 1429 l 1
 128 1428 258 1511 416 1511 c 0
 635 1511 773 1434 746 1208 c 0
 733 1112 663 1013 564 987 c 1
 663 960 723 853 707 741 c 0
 674 508 495 409 275 409 c 0
 106 409 4 463 4 463 c 1
 94 665 l 2
 94 665 199 615 296 615 c 0
 391 615 452 644 465 738 c 0
 479 837 378 893 266 889 c 1
 294 1086 l 1
 398 1086 502 1119 515 1213 c 0
EndSplineSet
EndChar

StartChar: asciitilde
Encoding: 126 126 688
Width: 653
Flags: W
HStem: 310 221<358.973 548.225> 425 229<105.996 293.467>
VStem: -110.5 209<316 420.317> 554.5 209<533.746 635>
LayerCount: 2
Fore
SplineSet
120.5 654 m 0x70
 291.5 654 373.5 531 486.5 531 c 0
 531.5 531 554 550 554.5 635 c 1
 763.5 635 l 1
 763.5 439 698.5 324 567.5 310 c 1
 542.5 310 l 2xb0
 374.5 310 249.5 425 166.5 425 c 0
 126.5 425 99 410 98.5 316 c 1
 -110.5 316 l 1
 -110.5 536 -33.5 654 120.5 654 c 0x70
EndSplineSet
EndChar

StartChar: Oslash
Encoding: 216 216 689
Width: 1568
Flags: W
HStem: -37 277<564.21 868.787> 1321 276<702.408 1000.87>
LayerCount: 2
Fore
SplineSet
376 -123 m 1
 1132 1739 l 1
 1263 1694 l 1
 512 -168 l 1
 376 -123 l 1
EndSplineSet
Refer: 43 79 N 1 0 0 1 0 0 2
EndChar

StartChar: Lslash
Encoding: 777 321 696
Width: 1048
Flags: W
HStem: 0 242<432 1032> 1557 20G<296.172 621>
LayerCount: 2
Fore
SplineSet
1032 0 m 1
 76 0 l 1
 299 1577 l 1
 621 1577 l 1
 432 242 l 1
 1067 242 l 1
 1032 0 l 1
EndSplineSet
EndChar

StartChar: degree
Encoding: 176 176 698
Width: 734
Flags: W
HStem: -175 118<221.39 467.933> 323 118<263.966 510.534>
VStem: 49 633
LayerCount: 2
Fore
SplineSet
171 133 m 4
 156 23 239 -57 339 -57 c 4
 439 -57 545 23 560 133 c 4
 575 243 493 323 393 323 c 4
 293 323 186 243 171 133 c 4
49 133 m 0
 74 312 247 441 409 441 c 0
 572 441 707 312 682 133 c 0
 657 -46 486 -175 323 -175 c 0
 161 -175 24 -46 49 133 c 0
EndSplineSet
EndChar

StartChar: divide
Encoding: 778 247 699
Width: 1048
Flags: W
HStem: 137 365<476.875 656.125> 580 262<176 1065> 919 365<586.875 766.125>
LayerCount: 2
Fore
SplineSet
507 1102 m 0
 521 1203 608 1284 702 1284 c 0
 796 1284 860 1203 846 1102 c 0
 832 1001 745 919 651 919 c 0
 557 919 493 1001 507 1102 c 0
397 320 m 0
 411 421 498 502 592 502 c 0
 686 502 750 421 736 320 c 0
 722 219 635 137 541 137 c 0
 447 137 383 219 397 320 c 0
1065 580 m 5
 139 580 l 5
 176 842 l 5
 1102 842 l 5
 1065 580 l 5
EndSplineSet
EndChar

StartChar: dcroat
Encoding: 185 273 700
Width: 1285
Flags: W
HStem: -16 236<354.528 651.581> 0 21<809.94 1027.82> 894 234<558.321 781.687> 1280 165<495 1285>
VStem: 134.125 313.309<261.692 710.334>
LayerCount: 2
Fore
SplineSet
1285 1280 m 1x38
 495 1280 l 1
 495 1445 l 1
 1285 1445 l 1
 1285 1280 l 1x38
EndSplineSet
Refer: 64 100 N 1 0 0 1 0 0 2
EndChar

StartChar: multiply
Encoding: 779 215 701
Width: 1247
Flags: W
HStem: 0 21G<271.145 307.363 948.324 984.641> 1144 20G<427.641 465.725 1106.69 1144.72>
LayerCount: 2
Fore
SplineSet
732 756 m 1
 1126 1164 l 1
 1272 1008 l 1
 852 582 l 1
 1142 159 l 1
 962 0 l 1
 683 408 l 1
 288 0 l 1
 154 159 l 1
 562 582 l 1
 262 1008 l 1
 452 1164 l 1
 732 756 l 1
EndSplineSet
EndChar

StartChar: Hbar
Encoding: 780 294 702
Width: 1561
Flags: W
HStem: 0 21<82 408.816 954 1276.8> 696 244<539 1053> 1151 152<0 1561> 1557 20<300.197 627 1173.14 1495>
LayerCount: 2
Fore
SplineSet
1561 1151 m 5
 0 1151 l 5
 0 1303 l 5
 1561 1303 l 5
 1561 1151 l 5
EndSplineSet
Refer: 36 72 N 1 0 0 1 0 0 2
EndChar

StartChar: hbar
Encoding: 782 295 703
Width: 1271
Flags: W
HStem: 0 21<87 400.815 721 1036.81> 884 234<641.903 922.735> 1303 152<0 1170>
VStem: 820.795 315.845<584.028 852.207>
LayerCount: 2
Fore
SplineSet
1170 1303 m 5
 0 1303 l 5
 0 1455 l 5
 1170 1455 l 5
 1170 1303 l 5
EndSplineSet
Refer: 68 104 N 1 0 0 1 0 0 2
EndChar

StartChar: periodcentered
Encoding: 183 183 704
Width: 461
Flags: W
HStem: 522.6 364.801<111.653 350.347>
VStem: 48.5996 364.8<585.653 824.347>
LayerCount: 2
Fore
SplineSet
48.5996 705 m 4
 48.5996 805.686 130.314 887.401 231 887.401 c 4
 331.686 887.401 413.4 805.686 413.4 705 c 4
 413.4 604.314 331.686 522.6 231 522.6 c 4
 130.314 522.6 48.5996 604.314 48.5996 705 c 4
EndSplineSet
EndChar

StartChar: kgreenlandic
Encoding: 255 312 705
Width: 1119
Flags: W
HStem: -0 21G<91 407.806 748.934 1114>
LayerCount: 2
Fore
SplineSet
460 392 m 5
 405 -0 l 5
 91 -0 l 1
 247 1111 l 1
 561 1111 l 5
 502 694 l 5
 901 1111 l 1
 1261 1111 l 1
 753 611 l 1
 1114 -0 l 1
 759 -1 l 1
 529 456 l 1
 460 392 l 5
EndSplineSet
EndChar

StartChar: tbar
Encoding: 187 359 708
Width: 996
Flags: W
HStem: -16 257.987<422.876 721.504> 726 165<50 840> 1009 151<209 307 639 873> 1557 20<625.143 695.17>
VStem: 218.848 312.367<255.011 523.975>
LayerCount: 2
Fore
SplineSet
840 726 m 5
 50 726 l 5
 50 891 l 5
 840 891 l 5
 840 726 l 5
EndSplineSet
Refer: 80 116 N 1 0 0 1 0 0 2
EndChar

StartChar: Eng
Encoding: 175 330 709
Width: 1493
Flags: W
HStem: -562 258<768.011 987.268> 0 21G<117 443.805> 1557 20G<336.185 712.569 1270.18 1597>
LayerCount: 2
Fore
SplineSet
1597 1577 m 5
 1363 -93 l 6
 1315 -435 1143 -562 928 -562 c 4
 744 -562 618 -463 618 -463 c 5
 737 -243 l 5
 737 -246 833 -305 905 -304 c 4
 991 -303 1019 -231 1035 -118 c 6
 1044 -51 l 5
 595 1098 l 1
 441 0 l 1
 117 0 l 1
 339 1577 l 1
 705 1577 l 1
 1119 483 l 1
 1273 1577 l 1
 1597 1577 l 5
EndSplineSet
EndChar

StartChar: eng
Encoding: 191 331 710
Width: 1096
Flags: W
HStem: -472 258<438.923 650.671> -11 21G<85 400.822> 884 234<642.878 933.5>
LayerCount: 2
Fore
SplineSet
793 680 m 2
 813 827 785 884 680 884 c 0
 613 884 554 854 514 811 c 1
 398 -11 l 1
 85 -11 l 1
 241 1102 l 1
 478 1102 l 1
 518 963 l 1
 576 1043 684 1118 805 1118 c 0
 1062 1118 1144 961 1101 659 c 2
 1005 -20 l 2
 958 -350 797 -472 595 -472 c 0
 422 -472 305 -373 305 -373 c 1
 418 -156 l 1
 418 -159 506 -215 572 -214 c 0
 651 -213 677 -144 692 -37 c 2
 793 680 l 2
EndSplineSet
EndChar

StartChar: ae
Encoding: 230 230 711
Width: 1587
Flags: W
HStem: -18 235<277.5 594.697 1067.87 1356.86> 468 174<1022 1361.01> 513 182<437.097 711> 878 250<403.338 728.065 1102.89 1336.71>
LayerCount: 2
Fore
SplineSet
386 368 m 0xb0
 373 273 418 217 498 217 c 0
 568 217 629 256 682 299 c 1
 711 505 l 1
 685 509 650 513 618 513 c 0
 473 513 401 477 386 368 c 0xb0
1450 302 m 5
 1478 80 l 5
 1372 23 1258 -15 1108 -16 c 0
 930 -17 840 50 793 200 c 1
 682 30 523 -18 389 -18 c 0
 166 -18 58 111 92 355 c 0
 131 633 361 695 604 695 c 0xb0
 647 695 700 691 736 683 c 1
 752 796 755 878 625 878 c 0
 476 878 267 806 267 806 c 1
 254 1015 l 1
 359 1084 535 1128 673 1128 c 0
 805 1128 907 1088 950 980 c 1
 1028 1086 1150 1128 1267 1128 c 0
 1531 1128 1647 920 1606 626 c 6
 1583 468 l 5
 997 468 l 1xd0
 997 466 l 1
 982 330 1044 220 1191 221 c 0
 1296 222 1379 254 1450 302 c 5
1356 642 m 5xd0
 1377 783 1347 892 1227 892 c 0
 1113 892 1048 783 1025 666 c 0
 1024 658 1023 650 1022 642 c 1
 1356 642 l 5xd0
EndSplineSet
EndChar

StartChar: oslash
Encoding: 248 248 712
Width: 1294
Flags: W
HStem: -16 234<495.328 710.88> 892 236<578 793.575>
VStem: 135.6 310.377<261.42 701.128> 843.023 309.377<403.17 847.757>
LayerCount: 2
Fore
SplineSet
343 -141 m 1
 848 1362 l 1
 949 1326 l 1
 449 -177 l 1
 343 -141 l 1
EndSplineSet
Refer: 75 111 N 1 0 0 1 0 0 2
EndChar

StartChar: eth
Encoding: 240 240 713
Width: 1111
Flags: HW
LayerCount: 2
Fore
SplineSet
1208 1467 m 5
 547 1213 l 5
 533 1378 l 5
 1193 1633 l 5
 1208 1467 l 5
1124 612 m 4
 1062 171 832 -16 510 -16 c 4
 192 -16 102 247 146 557 c 4
 193 892 369 1128 616 1128 c 4
 757 1128 830 1058 865 988 c 5
 868 1154 697 1444 556 1557 c 5
 713 1752 l 5
 944 1569 1220 1296 1124 612 c 4
457 557 m 4
 434 394 444 220 583 220 c 4
 711 220 780 376 801 528 c 6
 840 805 l 5
 799 856 737 894 651 894 c 4
 516 894 479 714 457 557 c 4
EndSplineSet
EndChar

StartChar: afii00208
Encoding: 189 8213 714
Width: 4096
VWidth: 0
Flags: HW
LayerCount: 2
Fore
SplineSet
197 604 m 1
 197 836 l 1
 4095 836 l 1
 4095 604 l 1
 197 604 l 1
EndSplineSet
EndChar
